<svg xmlns="http://www.w3.org/2000/svg" width="76.6" height="99.52" viewBox="0 0 76.6 99.52">
  <defs>
    <style>
      .cls-1 {
      fill: #00aa47;
      }

      .cls-1, .cls-2 {
      stroke: #000;
      stroke-miterlimit: 10;
      stroke-width: 1.34px;
      }

      .cls-2 {
      fill: none;
      }
    </style>
  </defs>
  <g id="Capa_2" data-name="Capa 2">
    <g id="Capa_1-2" data-name="Capa 1">
      <g>
        <g>
          <path class="cls-1"
            d="M72.4,98.85H4.2A3.52,3.52,0,0,1,.67,95.33V4.2A3.53,3.53,0,0,1,4.2.67H64.26L75.93,15.26V95.33A3.52,3.52,0,0,1,72.4,98.85Z" />
          <polyline class="cls-2" points="64.26 0.67 64.26 15.26 75.93 15.26" />
        </g>
        <g>
          <path d="M16.29,32V29.87h4.92V48.79h-2.4V32Z" />
          <path
            d="M28.73,32.11q1.45-2.53,5.12-2.53T39,32.11a14,14,0,0,1,1.46,7A14.29,14.29,0,0,1,39,46.25c-1,1.7-2.68,2.54-5.11,2.54S29.7,48,28.73,46.25a14.29,14.29,0,0,1-1.47-7.12A14,14,0,0,1,28.73,32.11Zm9,3.16a4.93,4.93,0,0,0-1.23-2.55,3.58,3.58,0,0,0-2.69-1,3.59,3.59,0,0,0-2.7,1,4.93,4.93,0,0,0-1.23,2.55,21.22,21.22,0,0,0-.3,3.86,22,22,0,0,0,.3,4,4.89,4.89,0,0,0,1.23,2.56,3.55,3.55,0,0,0,2.7,1,3.55,3.55,0,0,0,2.69-1,4.89,4.89,0,0,0,1.23-2.56,22,22,0,0,0,.3-4A21.22,21.22,0,0,0,37.77,35.27Z" />
          <path
            d="M47.12,32.11q1.47-2.53,5.13-2.53t5.11,2.53a14.11,14.11,0,0,1,1.46,7,14.4,14.4,0,0,1-1.46,7.12c-1,1.7-2.68,2.54-5.11,2.54S48.1,48,47.12,46.25a14.4,14.4,0,0,1-1.46-7.12A14.11,14.11,0,0,1,47.12,32.11Zm9.05,3.16a4.93,4.93,0,0,0-1.23-2.55,4.24,4.24,0,0,0-5.4,0,5.09,5.09,0,0,0-1.23,2.55,21.22,21.22,0,0,0-.3,3.86,22,22,0,0,0,.3,4,5,5,0,0,0,1.23,2.56,4.24,4.24,0,0,0,5.4,0,4.89,4.89,0,0,0,1.23-2.56,22,22,0,0,0,.3-4A21.22,21.22,0,0,0,56.17,35.27Z" />
          <path
            d="M18.39,63.51Q19.85,61,23.52,61t5.1,2.52a14.07,14.07,0,0,1,1.47,7,14.31,14.31,0,0,1-1.47,7.12q-1.47,2.53-5.1,2.54t-5.13-2.54a14.31,14.31,0,0,1-1.47-7.12A14.07,14.07,0,0,1,18.39,63.51Zm9,3.17a4.86,4.86,0,0,0-1.23-2.55,3.52,3.52,0,0,0-2.68-1,3.56,3.56,0,0,0-2.71,1,4.86,4.86,0,0,0-1.23,2.55,21.15,21.15,0,0,0-.3,3.86,21.83,21.83,0,0,0,.3,3.95,4.92,4.92,0,0,0,1.23,2.57,3.6,3.6,0,0,0,2.71,1,3.56,3.56,0,0,0,2.68-1,4.92,4.92,0,0,0,1.23-2.57,21.83,21.83,0,0,0,.3-3.95A21.15,21.15,0,0,0,27.43,66.68Z" />
          <path
            d="M36.79,63.51Q38.24,61,41.92,61T47,63.51a14.07,14.07,0,0,1,1.46,7A14.32,14.32,0,0,1,47,77.66q-1.47,2.53-5.1,2.54t-5.13-2.54a14.31,14.31,0,0,1-1.47-7.12A14.07,14.07,0,0,1,36.79,63.51Zm9,3.17a4.86,4.86,0,0,0-1.23-2.55,3.54,3.54,0,0,0-2.68-1,3.56,3.56,0,0,0-2.71,1A4.86,4.86,0,0,0,38,66.68a21.15,21.15,0,0,0-.3,3.86,21.83,21.83,0,0,0,.3,3.95,4.92,4.92,0,0,0,1.23,2.57,3.6,3.6,0,0,0,2.71,1,3.58,3.58,0,0,0,2.68-1,4.92,4.92,0,0,0,1.23-2.57,21.83,21.83,0,0,0,.3-3.95A21.15,21.15,0,0,0,45.83,66.68Z" />
          <path d="M53.09,63.45V61.28H58V80.2H55.6V63.45Z" />
        </g>
      </g>
    </g>
  </g>
</svg>