<svg xmlns="http://www.w3.org/2000/svg" width="125.85" height="84.13" viewBox="0 0 125.85 84.13">
  <defs>
    <style>
      .cls-1 {
      fill: #00aa47;
      stroke: #000;
      stroke-miterlimit: 10;
      stroke-width: 1.34px;
      }
    </style>
  </defs>
  <g id="Capa_2" data-name="Capa 2">
    <g id="Capa_1-2" data-name="Capa 1">
      <g>
        <path class="cls-1"
          d="M.67,78.64V5.5A4.83,4.83,0,0,1,5.5.67H31.19a4.83,4.83,0,0,1,3.93,2l5.8,8.12h52a4.82,4.82,0,0,1,4.82,4.82V83.46H5.5A4.82,4.82,0,0,1,.67,78.64Z" />
        <path class="cls-1"
          d="M10.4,83.46V32.52a4.37,4.37,0,0,1,4.37-4.38H97.6A4.38,4.38,0,0,1,102,32.52V79.09a4.38,4.38,0,0,1-4.38,4.37Z" />
        <path class="cls-1"
          d="M5.61,83.46,23.93,27.28a7.27,7.27,0,0,1,6.4-4.83h91.35c2.66,0,4.12,2.16,3.25,4.83L108.18,78.64a7.27,7.27,0,0,1-6.4,4.82Z" />
      </g>
    </g>
  </g>
</svg>