<svg width="204" height="139" viewBox="0 0 204 139" fill="none" xmlns="http://www.w3.org/2000/svg">
    <path d="M202.551 137.071H1V1H202.551V137.071Z" fill="none" stroke="black"
        stroke-width="2.00267" stroke-miterlimit="10" />
    <path d="M188.192 122.492H15.136V15.58H188.192V122.492Z" stroke="black" stroke-width="2.00267"
        stroke-miterlimit="10" />
    <path d="M1.00085 1.21669L15.5809 15.7967" stroke="black" stroke-width="2.00267"
        stroke-miterlimit="10" />
    <path d="M1.00085 136.855L15.5809 122.275" stroke="black" stroke-width="2.00267"
        stroke-miterlimit="10" />
    <path d="M202.551 136.855L187.971 122.275" stroke="black" stroke-width="2.00267"
        stroke-miterlimit="10" />
    <path d="M202.551 1.21669L187.971 15.7967" stroke="black" stroke-width="2.00267"
        stroke-miterlimit="10" />
    <path
        d="M60.4927 100.521H56.7307L45.4117 83.3944V100.521H41.6497V77.5534H45.4117L56.7307 94.6474V77.5534H60.4927V100.521ZM69.1949 80.6224V87.3544H77.1149V90.4234H69.1949V97.4524H78.1049V100.521H65.4329V77.5534H78.1049V80.6224H69.1949ZM112.604 77.5864L105.806 100.521H101.549L96.7306 83.1634L91.6156 100.521L87.3915 100.554L80.8905 77.5864H84.8835L89.6356 96.2644L94.7836 77.5864H99.0076L103.793 96.1654L108.578 77.5864H112.604ZM120.425 77.5864L119.996 93.5914H116.861L116.432 77.5864H120.425ZM118.544 100.752C117.862 100.752 117.29 100.521 116.828 100.059C116.366 99.5974 116.135 99.0254 116.135 98.3434C116.135 97.6614 116.366 97.0894 116.828 96.6274C117.29 96.1654 117.862 95.9344 118.544 95.9344C119.204 95.9344 119.765 96.1654 120.227 96.6274C120.689 97.0894 120.92 97.6614 120.92 98.3434C120.92 99.0254 120.689 99.5974 120.227 100.059C119.765 100.521 119.204 100.752 118.544 100.752Z"
        fill="black" />
</svg>