<svg xmlns="http://www.w3.org/2000/svg" width="103.56" height="63.07" viewBox="0 0 103.56 63.07">
  <defs>
    <style>
      .cls-1 {
      fill: #1a1a1a;
      }

      .cls-1, .cls-2, .cls-3 {
      stroke: #f7f7f7;
      stroke-miterlimit: 10;
      }

      .cls-1, .cls-3 {
      stroke-width: 1.5px;
      }

      .cls-2, .cls-3 {
      fill: none;
      }

      .cls-2 {
      stroke-width: 1.48px;
      }

      .cls-4 {
      fill: #f7f7f7;
      }
    </style>
  </defs>
  <g id="Capa_2" data-name="Capa 2">
    <g id="Capa_1-2" data-name="Capa 1">
      <g>
        <g>
          <rect class="cls-1" x="0.75" y="0.75" width="102.05" height="61.57" />
          <rect class="cls-2" x="11.69" y="11.42" width="80.18" height="39.58" />
          <line class="cls-3" x1="0.75" y1="0.75" x2="11.69" y2="11.69" />
          <line class="cls-3" x1="102.52" y1="0.75" x2="91.58" y2="11.69" />
          <line class="cls-3" x1="102.52" y1="62" x2="91.58" y2="51.06" />
          <line class="cls-3" x1="0.75" y1="62" x2="11.69" y2="51.06" />
        </g>
        <g>
          <path class="cls-4"
            d="M33.91,36.41h-10a4,4,0,0,0,1.27,2.88,4,4,0,0,0,2.79,1,3.89,3.89,0,0,0,2.24-.62A3.31,3.31,0,0,0,31.49,38h2.24a5.42,5.42,0,0,1-2,2.93A6.06,6.06,0,0,1,28,42.08a6.31,6.31,0,0,1-3.18-.8A5.6,5.6,0,0,1,22.61,39a7,7,0,0,1-.8-3.4,7.14,7.14,0,0,1,.78-3.4A5.39,5.39,0,0,1,24.76,30,6.55,6.55,0,0,1,28,29.18a6.23,6.23,0,0,1,3.14.78,5.4,5.4,0,0,1,2.11,2.13A6.3,6.3,0,0,1,34,35.15,11.26,11.26,0,0,1,33.91,36.41Zm-2.6-3.73a3.43,3.43,0,0,0-1.42-1.3,4.54,4.54,0,0,0-2-.44,3.84,3.84,0,0,0-2.68,1A4.08,4.08,0,0,0,24,34.72h7.89A3.82,3.82,0,0,0,31.31,32.68Z" />
          <path class="cls-4"
            d="M38.56,41.59a4.33,4.33,0,0,1-1.8-1.37,3.6,3.6,0,0,1-.73-2h2.14a2.07,2.07,0,0,0,.88,1.53,3.29,3.29,0,0,0,2.06.59A3,3,0,0,0,43,39.8a1.61,1.61,0,0,0,.68-1.32,1.3,1.3,0,0,0-.73-1.22,10.15,10.15,0,0,0-2.26-.79,16.2,16.2,0,0,1-2.26-.74,3.93,3.93,0,0,1-1.5-1.11,2.93,2.93,0,0,1-.63-1.95,3,3,0,0,1,.57-1.76,3.86,3.86,0,0,1,1.62-1.26,5.79,5.79,0,0,1,2.39-.47,5.11,5.11,0,0,1,3.35,1.05,3.78,3.78,0,0,1,1.36,2.87H43.5a2.17,2.17,0,0,0-.79-1.57,2.94,2.94,0,0,0-1.92-.59,3,3,0,0,0-1.78.48,1.47,1.47,0,0,0-.66,1.25,1.34,1.34,0,0,0,.4,1,2.92,2.92,0,0,0,1,.64,17,17,0,0,0,1.68.54,18.72,18.72,0,0,1,2.18.71,3.81,3.81,0,0,1,1.45,1.06,2.89,2.89,0,0,1,.63,1.85,3.13,3.13,0,0,1-.57,1.84,3.79,3.79,0,0,1-1.61,1.29,5.74,5.74,0,0,1-2.38.47A6.54,6.54,0,0,1,38.56,41.59Z" />
          <path class="cls-4"
            d="M48.6,32.23A5.58,5.58,0,0,1,50.76,30a6.8,6.8,0,0,1,6.94.32,5.2,5.2,0,0,1,2,3.1H57.44a3.16,3.16,0,0,0-1.24-1.8,3.83,3.83,0,0,0-2.29-.66A3.66,3.66,0,0,0,51,32.16,5,5,0,0,0,50,35.61,5.06,5.06,0,0,0,51,39.09a3.66,3.66,0,0,0,2.87,1.23,3.93,3.93,0,0,0,2.28-.63,3.26,3.26,0,0,0,1.25-1.83h2.23a5.49,5.49,0,0,1-2,3.07,6.05,6.05,0,0,1-3.76,1.15,6.17,6.17,0,0,1-3.15-.8A5.58,5.58,0,0,1,48.6,39a7.31,7.31,0,0,1-.77-3.42A7.11,7.11,0,0,1,48.6,32.23Z" />
        </g>
      </g>
    </g>
  </g>
</svg>