<svg xmlns="http://www.w3.org/2000/svg" width="103.56" height="103.56" viewBox="0 0 103.56 103.56">
  <defs>
    <style>
      .cls-1 {
      fill: #1a1a1a;
      }

      .cls-1, .cls-2 {
      stroke: #f7f7f7;
      stroke-miterlimit: 10;
      stroke-width: 1.5px;
      }

      .cls-2 {
      fill: none;
      }

      .cls-3 {
      fill: #f7f7f7;
      }
    </style>
  </defs>
  <g id="Capa_2" data-name="Capa 2">
    <g id="Capa_1-2" data-name="Capa 1">
      <g>
        <g>
          <rect class="cls-1" x="0.75" y="0.75" width="102.05" height="102.05" />
          <rect class="cls-2" x="11.69" y="11.69" width="80.18" height="80.18" />
          <line class="cls-1" x1="0.75" y1="0.75" x2="11.69" y2="11.69" />
          <line class="cls-1" x1="102.52" y1="0.75" x2="91.58" y2="11.69" />
          <line class="cls-1" x1="102.52" y1="102.48" x2="91.58" y2="91.54" />
          <line class="cls-1" x1="0.75" y1="102.48" x2="11.69" y2="91.54" />
        </g>
        <g>
          <path class="cls-3"
            d="M40.11,35.44c1.69-.32,2.54-1.19,2.54-2.62,0-.63-.09-1.71-.25-3.24s-.25-2.8-.25-3.53a3.58,3.58,0,0,1,1-2.74,3.78,3.78,0,0,1,2.7-.95h1.45v2h-1a2.08,2.08,0,0,0-1.44.43,1.86,1.86,0,0,0-.47,1.44c0,.48,0,1.07.1,1.78s.1,1.18.12,1.43c.17,1.59.25,2.76.25,3.49a3.57,3.57,0,0,1-.66,2.2,3.3,3.3,0,0,1-2,1.18v0a3.27,3.27,0,0,1,2,1.2,3.65,3.65,0,0,1,.66,2.22c0,.73-.08,1.89-.25,3.48,0,.25-.06.73-.12,1.43s-.1,1.3-.1,1.78a1.86,1.86,0,0,0,.47,1.44,2.08,2.08,0,0,0,1.44.43h1v2H45.86a3.74,3.74,0,0,1-2.7-1,3.58,3.58,0,0,1-1-2.74c0-.73.08-1.91.25-3.53s.25-2.61.25-3.24c0-1.43-.85-2.3-2.54-2.62Z" />
          <path class="cls-3" d="M59.07,56.76v1.86H56.71V82.76h2.36v1.89H54.59V56.76Z" />
        </g>
      </g>
    </g>
  </g>
</svg>