<svg xmlns="http://www.w3.org/2000/svg" width="152.66" height="103.56" viewBox="0 0 152.66 103.56">
  <defs>
    <style>
      .cls-1 {
      fill: none;
      }

      .cls-1, .cls-2 {
      stroke: #000;
      stroke-miterlimit: 10;
      stroke-width: 1.5px;
      }

      .cls-2 {
      fill: none;
      }
    </style>
  </defs>
  <g id="Capa_2" data-name="Capa 2">
    <g id="Capa_1-2" data-name="Capa 1">
      <g>
        <g>
          <g>
            <rect class="cls-1" x="0.75" y="0.75" width="151.16" height="102.05" />
            <rect class="cls-2" x="11.35" y="11.69" width="129.79" height="80.18" />
          </g>
          <line class="cls-2" x1="0.75" y1="0.91" x2="11.69" y2="11.85" />
          <line class="cls-2" x1="0.75" y1="102.64" x2="11.69" y2="91.71" />
          <line class="cls-2" x1="151.91" y1="102.64" x2="140.98" y2="91.71" />
          <line class="cls-2" x1="151.91" y1="0.91" x2="140.98" y2="11.85" />
        </g>
        <g>
          <path d="M45,27.92V45.23H42.19V37.66H34.05v7.57H31.21V27.92h2.84v7.43h8.14V27.92Z" />
          <path d="M51.61,30.21V35.3h6v2.31h-6v5.31h6.72v2.31H48.77V27.9h9.56v2.31Z" />
          <path d="M64.66,42.94h5.85v2.29H61.82V27.92h2.84Z" />
          <path d="M75.72,42.94h5.85v2.29H72.88V27.92h2.84Z" />
          <path
            d="M87.39,44.27a8.29,8.29,0,0,1-3.22-3.16,9.42,9.42,0,0,1,0-9.13,8.47,8.47,0,0,1,3.22-3.15,9.35,9.35,0,0,1,8.91,0A8.35,8.35,0,0,1,99.5,32a9.49,9.49,0,0,1,0,9.13,8.17,8.17,0,0,1-3.2,3.16,9.27,9.27,0,0,1-8.91,0Zm7.51-2.11A5.54,5.54,0,0,0,97,39.92a7.2,7.2,0,0,0,.76-3.38A7.06,7.06,0,0,0,97,33.18,5.49,5.49,0,0,0,94.9,31a6.49,6.49,0,0,0-6.13,0,5.45,5.45,0,0,0-2.11,2.22,7.18,7.18,0,0,0-.76,3.36,7.32,7.32,0,0,0,.76,3.38,5.5,5.5,0,0,0,2.11,2.24,6.41,6.41,0,0,0,6.13,0Z" />
          <path d="M106.58,41.82l-3,6.88h-1.84l1.77-6.88Z" />
          <path
            d="M53.75,57.81,48.62,75.12H45.4L41.77,62l-3.86,13.1-3.19,0L29.81,57.81h3l3.58,14.1,3.89-14.1h3.19l3.61,14,3.61-14Z" />
          <path
            d="M59.54,74.17A8.42,8.42,0,0,1,56.33,71a9.35,9.35,0,0,1,0-9.13,8.51,8.51,0,0,1,3.21-3.15,9.37,9.37,0,0,1,8.92,0,8.42,8.42,0,0,1,3.2,3.15,9.49,9.49,0,0,1,0,9.13,8.33,8.33,0,0,1-3.2,3.17,9.37,9.37,0,0,1-8.92,0Zm7.51-2.12a5.41,5.41,0,0,0,2.1-2.24,7.17,7.17,0,0,0,.76-3.38,7.06,7.06,0,0,0-.76-3.36,5.36,5.36,0,0,0-2.1-2.22,6.49,6.49,0,0,0-6.13,0,5.42,5.42,0,0,0-2.1,2.22,7.06,7.06,0,0,0-.76,3.36,7.17,7.17,0,0,0,.76,3.38,5.48,5.48,0,0,0,2.1,2.24,6.41,6.41,0,0,0,6.13,0Z" />
          <path
            d="M84.61,75.12l-4-6.92H78.46v6.92H75.62V57.81h6a7.47,7.47,0,0,1,3.37.7A4.91,4.91,0,0,1,87,60.38,5,5,0,0,1,87.72,63a5.16,5.16,0,0,1-1,3.08,5,5,0,0,1-3,1.88L88,75.12Zm-6.15-9.19H81.6a3.29,3.29,0,0,0,2.4-.79A2.88,2.88,0,0,0,84.81,63a2.78,2.78,0,0,0-.8-2.1,3.35,3.35,0,0,0-2.41-.76H78.46Z" />
          <path d="M94.2,72.83h5.85v2.29H91.36V57.81H94.2Z" />
          <path
            d="M112.92,58.87a7.6,7.6,0,0,1,3.21,3,9.09,9.09,0,0,1,1.13,4.62,8.87,8.87,0,0,1-1.13,4.58,7.47,7.47,0,0,1-3.21,3,10.76,10.76,0,0,1-4.85,1h-5.65V57.81h5.65A10.63,10.63,0,0,1,112.92,58.87Zm-.19,12.29a6.31,6.31,0,0,0,1.62-4.63,6.54,6.54,0,0,0-1.62-4.71,6.14,6.14,0,0,0-4.66-1.69h-2.81V72.81h2.81A6.23,6.23,0,0,0,112.73,71.16Z" />
          <path
            d="M120.93,74.78a1.76,1.76,0,0,1-.53-1.3,1.82,1.82,0,1,1,1.82,1.82A1.77,1.77,0,0,1,120.93,74.78Zm2.71-17-.32,12.08H121l-.32-12.08Z" />
        </g>
      </g>
    </g>
  </g>
</svg>