<svg width="204" height="139" viewBox="0 0 204 139" fill="none" xmlns="http://www.w3.org/2000/svg">
    <path d="M202.551 137.071H1V0.999996H202.551V137.071Z" fill="none" stroke="black"
        stroke-width="2.00267" stroke-miterlimit="10" />
    <path d="M188.192 122.492H15.136V15.58H188.192V122.492Z" stroke="black" stroke-width="2.00267"
        stroke-miterlimit="10" />
    <path d="M1.00085 1.21669L15.5809 15.7967" stroke="black" stroke-width="2.00267"
        stroke-miterlimit="10" />
    <path d="M1.00085 136.855L15.5809 122.275" stroke="black" stroke-width="2.00267"
        stroke-miterlimit="10" />
    <path d="M202.551 136.855L187.971 122.275" stroke="black" stroke-width="2.00267"
        stroke-miterlimit="10" />
    <path d="M202.551 1.21669L187.971 15.7967" stroke="black" stroke-width="2.00267"
        stroke-miterlimit="10" />
    <path
        d="M49.2067 100.752C47.6667 100.752 46.2807 100.488 45.0487 99.9604C43.8167 99.4104 42.8487 98.6404 42.1447 97.6504C41.4407 96.6604 41.0887 95.5054 41.0887 94.1854H45.1147C45.2027 95.1754 45.5877 95.9894 46.2697 96.6274C46.9737 97.2654 47.9527 97.5844 49.2067 97.5844C50.5047 97.5844 51.5167 97.2764 52.2427 96.6604C52.9687 96.0224 53.3317 95.2084 53.3317 94.2184C53.3317 93.4484 53.1007 92.8214 52.6387 92.3374C52.1987 91.8534 51.6377 91.4794 50.9557 91.2154C50.2957 90.9514 49.3717 90.6654 48.1837 90.3574C46.6877 89.9614 45.4667 89.5654 44.5207 89.1694C43.5967 88.7514 42.8047 88.1134 42.1447 87.2554C41.4847 86.3974 41.1547 85.2534 41.1547 83.8234C41.1547 82.5034 41.4847 81.3484 42.1447 80.3584C42.8047 79.3684 43.7287 78.6094 44.9167 78.0814C46.1047 77.5534 47.4797 77.2894 49.0417 77.2894C51.2637 77.2894 53.0787 77.8504 54.4867 78.9724C55.9167 80.0724 56.7087 81.5904 56.8627 83.5264H52.7047C52.6387 82.6904 52.2427 81.9754 51.5167 81.3814C50.7907 80.7874 49.8337 80.4904 48.6457 80.4904C47.5677 80.4904 46.6877 80.7654 46.0057 81.3154C45.3237 81.8654 44.9827 82.6574 44.9827 83.6914C44.9827 84.3954 45.1917 84.9784 45.6097 85.4404C46.0497 85.8804 46.5997 86.2324 47.2597 86.4964C47.9197 86.7604 48.8217 87.0464 49.9657 87.3544C51.4837 87.7724 52.7157 88.1904 53.6617 88.6084C54.6297 89.0264 55.4437 89.6754 56.1037 90.5554C56.7857 91.4134 57.1267 92.5684 57.1267 94.0204C57.1267 95.1864 56.8077 96.2864 56.1697 97.3204C55.5537 98.3544 54.6407 99.1904 53.4307 99.8284C52.2427 100.444 50.8347 100.752 49.2067 100.752ZM72.0267 100.752C69.8927 100.752 67.9237 100.257 66.1197 99.2674C64.3377 98.2554 62.9187 96.8584 61.8627 95.0764C60.8287 93.2724 60.3117 91.2484 60.3117 89.0044C60.3117 86.7604 60.8287 84.7474 61.8627 82.9654C62.9187 81.1834 64.3377 79.7974 66.1197 78.8074C67.9237 77.7954 69.8927 77.2894 72.0267 77.2894C74.1827 77.2894 76.1517 77.7954 77.9337 78.8074C79.7377 79.7974 81.1567 81.1834 82.1907 82.9654C83.2247 84.7474 83.7417 86.7604 83.7417 89.0044C83.7417 91.2484 83.2247 93.2724 82.1907 95.0764C81.1567 96.8584 79.7377 98.2554 77.9337 99.2674C76.1517 100.257 74.1827 100.752 72.0267 100.752ZM72.0267 97.4854C73.5447 97.4854 74.8977 97.1444 76.0857 96.4624C77.2737 95.7584 78.1977 94.7684 78.8577 93.4924C79.5397 92.1944 79.8807 90.6984 79.8807 89.0044C79.8807 87.3104 79.5397 85.8254 78.8577 84.5494C78.1977 83.2734 77.2737 82.2944 76.0857 81.6124C74.8977 80.9304 73.5447 80.5894 72.0267 80.5894C70.5087 80.5894 69.1557 80.9304 67.9677 81.6124C66.7797 82.2944 65.8447 83.2734 65.1627 84.5494C64.5027 85.8254 64.1727 87.3104 64.1727 89.0044C64.1727 90.6984 64.5027 92.1944 65.1627 93.4924C65.8447 94.7684 66.7797 95.7584 67.9677 96.4624C69.1557 97.1444 70.5087 97.4854 72.0267 97.4854ZM97.9046 100.752C95.7706 100.752 93.8016 100.257 91.9976 99.2674C90.2156 98.2554 88.7966 96.8584 87.7406 95.0764C86.7066 93.2724 86.1896 91.2484 86.1896 89.0044C86.1896 86.7604 86.7066 84.7474 87.7406 82.9654C88.7966 81.1834 90.2156 79.7974 91.9976 78.8074C93.8016 77.7954 95.7706 77.2894 97.9046 77.2894C100.061 77.2894 102.03 77.7954 103.812 78.8074C105.616 79.7974 107.035 81.1834 108.069 82.9654C109.103 84.7474 109.62 86.7604 109.62 89.0044C109.62 91.2484 109.103 93.2724 108.069 95.0764C107.035 96.8584 105.616 98.2554 103.812 99.2674C102.03 100.257 100.061 100.752 97.9046 100.752ZM97.9046 97.4854C99.4226 97.4854 100.776 97.1444 101.964 96.4624C103.152 95.7584 104.076 94.7684 104.736 93.4924C105.418 92.1944 105.759 90.6984 105.759 89.0044C105.759 87.3104 105.418 85.8254 104.736 84.5494C104.076 83.2734 103.152 82.2944 101.964 81.6124C100.776 80.9304 99.4226 80.5894 97.9046 80.5894C96.3866 80.5894 95.0336 80.9304 93.8456 81.6124C92.6576 82.2944 91.7226 83.2734 91.0406 84.5494C90.3806 85.8254 90.0506 87.3104 90.0506 89.0044C90.0506 90.6984 90.3806 92.1944 91.0406 93.4924C91.7226 94.7684 92.6576 95.7584 93.8456 96.4624C95.0336 97.1444 96.3866 97.4854 97.9046 97.4854ZM132.165 100.521H128.403L117.084 83.3944V100.521H113.322V77.5534H117.084L128.403 94.6474V77.5534H132.165V100.521ZM141.824 77.5864L141.395 93.5914H138.26L137.831 77.5864H141.824ZM139.943 100.752C139.261 100.752 138.689 100.521 138.227 100.059C137.765 99.5974 137.534 99.0254 137.534 98.3434C137.534 97.6614 137.765 97.0894 138.227 96.6274C138.689 96.1654 139.261 95.9344 139.943 95.9344C140.603 95.9344 141.164 96.1654 141.626 96.6274C142.088 97.0894 142.319 97.6614 142.319 98.3434C142.319 99.0254 142.088 99.5974 141.626 100.059C141.164 100.521 140.603 100.752 139.943 100.752Z"
        fill="black" />
</svg>