<svg xmlns="http://www.w3.org/2000/svg" width="152.66" height="103.56" viewBox="0 0 152.66 103.56">
  <defs>
    <style>
      .cls-1 {
      fill: none;
      }

      .cls-1, .cls-2 {
      stroke: #000;
      stroke-miterlimit: 10;
      stroke-width: 1.5px;
      }

      .cls-2 {
      fill: none;
      }
    </style>
  </defs>
  <g id="Capa_2" data-name="Capa 2">
    <g id="Capa_1-2" data-name="Capa 1">
      <g>
        <g>
          <g>
            <rect class="cls-1" x="0.75" y="0.75" width="151.16" height="102.05" />
            <rect class="cls-2" x="11.35" y="11.69" width="129.79" height="80.18" />
          </g>
          <line class="cls-2" x1="0.75" y1="0.91" x2="11.69" y2="11.85" />
          <line class="cls-2" x1="0.75" y1="102.64" x2="11.69" y2="91.71" />
          <line class="cls-2" x1="151.91" y1="102.64" x2="140.98" y2="91.71" />
          <line class="cls-2" x1="151.91" y1="0.91" x2="140.98" y2="11.85" />
        </g>
        <g>
          <g>
            <path
              d="M28.83,52.24c4.16,0,4.77-1.88,4.77-4.78V42c0-5.17,3.17-7.63,7.57-7.63h1v3.17h-.69c-2.87,0-4,1.71-4,4.68v5.22c0,3.56-1.33,5.93-4.36,6.52,3.12.66,4.36,2.83,4.36,6.6v5.18c0,3.13,1.54,4.83,4.05,4.83h.6v3.17h-1c-3.84,0-7.57-2-7.57-7.62V60.48c0-2.72-.49-4.74-4.77-4.76Z" />
            <path
              d="M96.75,55.81c-4.16,0-4.77,1.88-4.77,4.78v5.49c0,5.18-3.18,7.63-7.58,7.63h-1V70.54h.68c2.88,0,4-1.71,4-4.68V60.64c0-3.56,1.32-5.93,4.36-6.52-3.12-.66-4.36-2.83-4.36-6.6V42.34c0-3.13-1.54-4.83-4-4.83h-.6V34.34h1c3.85,0,7.58,2,7.58,7.62v5.61c0,2.72.49,4.74,4.77,4.76Z" />
          </g>
          <path
            d="M50.55,42.71v3.36a7.5,7.5,0,0,1,6.93-3.61A9,9,0,0,1,62,43.61a8,8,0,0,1,3.1,3.28,9.68,9.68,0,0,1,3.3-3.22A9.53,9.53,0,0,1,79.58,45,10,10,0,0,1,82,52.22V65.59h-7V53.16a4.73,4.73,0,0,0-1.17-3.42,4.89,4.89,0,0,0-6.44,0,4.73,4.73,0,0,0-1.17,3.42V65.59h-7V53.16a4.73,4.73,0,0,0-1.17-3.42,4.88,4.88,0,0,0-6.43,0,4.73,4.73,0,0,0-1.17,3.42V65.59h-7V42.71Z" />
          <path
            d="M117.05,43.15a4.87,4.87,0,0,1-1.52-3.73,4.82,4.82,0,0,1,1.51-3.7,5.7,5.7,0,0,1,7.44,0,4.81,4.81,0,0,1,1.5,3.7,4.92,4.92,0,0,1-1.49,3.73,5.18,5.18,0,0,1-3.71,1.41A5.26,5.26,0,0,1,117.05,43.15Zm5.2-1.85a2.59,2.59,0,0,0,.61-1.86,2.51,2.51,0,0,0-.63-1.85,2,2,0,0,0-1.48-.64,2,2,0,0,0-1.48.64,2.55,2.55,0,0,0-.62,1.85,2.52,2.52,0,0,0,.64,1.86,2,2,0,0,0,1.49.65A2,2,0,0,0,122.25,41.3Z" />
          <path
            d="M100,35.75a3.4,3.4,0,0,1,2.93-1.41,4.22,4.22,0,0,1,3.23,1.44,5.2,5.2,0,0,1,1.33,3.68,5.16,5.16,0,0,1-1.33,3.67,4.18,4.18,0,0,1-3.2,1.43A3.39,3.39,0,0,1,100,43v4.57H96.93V34.44H100Zm3.71,5.53a2.85,2.85,0,0,0,0-3.65,2.11,2.11,0,0,0-1.52-.64,2.17,2.17,0,0,0-1.53.63,2.85,2.85,0,0,0,0,3.65,2.15,2.15,0,0,0,3,0Z" />
          <path
            d="M115,37h-3.3l0,7.49h-3.08s0-4.65,0-6.88a5.28,5.28,0,0,1,.14-1.12,2.63,2.63,0,0,1,2.35-2,8.26,8.26,0,0,1,1-.07H115C115,35.3,115,36,115,37Z" />
        </g>
      </g>
    </g>
  </g>
</svg>