<svg width="204" height="139" viewBox="0 0 204 139" fill="none" xmlns="http://www.w3.org/2000/svg">
    <path d="M202.551 137.071H1V0.999996H202.551V137.071Z" fill="none" stroke="#F7F7F7"
        stroke-width="2.00267" stroke-miterlimit="10" />
    <path d="M188.192 122.492H15.136V15.58H188.192V122.492Z" stroke="#F7F7F7" stroke-width="2.00267"
        stroke-miterlimit="10" />
    <path d="M1.00085 1.21669L15.5809 15.7967" stroke="#F7F7F7" stroke-width="2.00267"
        stroke-miterlimit="10" />
    <path d="M1.00085 136.855L15.5809 122.275" stroke="#F7F7F7" stroke-width="2.00267"
        stroke-miterlimit="10" />
    <path d="M202.551 136.855L187.971 122.275" stroke="#F7F7F7" stroke-width="2.00267"
        stroke-miterlimit="10" />
    <path d="M202.551 1.21669L187.971 15.7967" stroke="#F7F7F7" stroke-width="2.00267"
        stroke-miterlimit="10" />
    <path
        d="M49.2067 100.752C47.6667 100.752 46.2807 100.488 45.0487 99.9604C43.8167 99.4104 42.8487 98.6404 42.1447 97.6504C41.4407 96.6604 41.0887 95.5054 41.0887 94.1854H45.1147C45.2027 95.1754 45.5877 95.9894 46.2697 96.6274C46.9737 97.2654 47.9527 97.5844 49.2067 97.5844C50.5047 97.5844 51.5167 97.2764 52.2427 96.6604C52.9687 96.0224 53.3317 95.2084 53.3317 94.2184C53.3317 93.4484 53.1007 92.8214 52.6387 92.3374C52.1987 91.8534 51.6377 91.4794 50.9557 91.2154C50.2957 90.9514 49.3717 90.6654 48.1837 90.3574C46.6877 89.9614 45.4667 89.5654 44.5207 89.1694C43.5967 88.7514 42.8047 88.1134 42.1447 87.2554C41.4847 86.3974 41.1547 85.2534 41.1547 83.8234C41.1547 82.5034 41.4847 81.3484 42.1447 80.3584C42.8047 79.3684 43.7287 78.6094 44.9167 78.0814C46.1047 77.5534 47.4797 77.2894 49.0417 77.2894C51.2637 77.2894 53.0787 77.8504 54.4867 78.9724C55.9167 80.0724 56.7087 81.5904 56.8627 83.5264H52.7047C52.6387 82.6904 52.2427 81.9754 51.5167 81.3814C50.7907 80.7874 49.8337 80.4904 48.6457 80.4904C47.5677 80.4904 46.6877 80.7654 46.0057 81.3154C45.3237 81.8654 44.9827 82.6574 44.9827 83.6914C44.9827 84.3954 45.1917 84.9784 45.6097 85.4404C46.0497 85.8804 46.5997 86.2324 47.2597 86.4964C47.9197 86.7604 48.8217 87.0464 49.9657 87.3544C51.4837 87.7724 52.7157 88.1904 53.6617 88.6084C54.6297 89.0264 55.4437 89.6754 56.1037 90.5554C56.7857 91.4134 57.1267 92.5684 57.1267 94.0204C57.1267 95.1864 56.8077 96.2864 56.1697 97.3204C55.5537 98.3544 54.6407 99.1904 53.4307 99.8284C52.2427 100.444 50.8347 100.752 49.2067 100.752ZM75.3927 95.8354H65.7897L64.1397 100.521H60.2127L68.4297 77.5534H72.7857L81.0027 100.521H77.0427L75.3927 95.8354ZM74.3367 92.7664L70.6077 82.1074L66.8457 92.7664H74.3367ZM104.342 77.5864L95.7295 100.521H91.3735L82.7275 77.5864H86.7535L93.5515 96.6604L100.382 77.5864H104.342ZM111.251 80.6224V87.3544H119.171V90.4234H111.251V97.4524H120.161V100.521H107.489V77.5534H120.161V80.6224H111.251ZM148.843 93.9874C148.843 95.0874 148.568 96.1214 148.018 97.0894C147.49 98.0574 146.698 98.8714 145.642 99.5314C144.608 100.191 143.376 100.587 141.946 100.719V103.392H139.801V100.719C137.733 100.521 136.061 99.8724 134.785 98.7724C133.509 97.6724 132.871 96.2204 132.871 94.4164H136.897C136.963 95.2744 137.238 95.9894 137.722 96.5614C138.206 97.1114 138.899 97.4634 139.801 97.6174V90.3574C138.327 89.9834 137.128 89.6094 136.204 89.2354C135.28 88.8394 134.488 88.2234 133.828 87.3874C133.19 86.5514 132.871 85.4074 132.871 83.9554C132.871 82.1294 133.509 80.6224 134.785 79.4344C136.061 78.2244 137.733 77.5204 139.801 77.3224V74.6494H141.946V77.3224C143.882 77.4984 145.433 78.1144 146.599 79.1704C147.787 80.2044 148.458 81.6344 148.612 83.4604H144.586C144.52 82.7784 144.256 82.1734 143.794 81.6454C143.332 81.0954 142.716 80.7214 141.946 80.5234V87.6514C143.42 88.0034 144.619 88.3774 145.543 88.7734C146.467 89.1474 147.248 89.7524 147.886 90.5884C148.524 91.4024 148.843 92.5354 148.843 93.9874ZM136.699 83.7574C136.699 84.6594 136.963 85.3634 137.491 85.8694C138.041 86.3754 138.811 86.7824 139.801 87.0904V80.4244C138.855 80.5344 138.096 80.8754 137.524 81.4474C136.974 82.0194 136.699 82.7894 136.699 83.7574ZM141.946 97.6174C142.914 97.4634 143.673 97.0784 144.223 96.4624C144.773 95.8244 145.048 95.0654 145.048 94.1854C145.048 93.3054 144.773 92.6234 144.223 92.1394C143.695 91.6334 142.936 91.2264 141.946 90.9184V97.6174Z"
        fill="#F7F7F7" />
</svg>