<svg xmlns="http://www.w3.org/2000/svg" width="103.56" height="63.07" viewBox="0 0 103.56 63.07">
  <defs>
    <style>
      .cls-1 {
        fill: #1a1a1a;
      }

      .cls-1, .cls-2, .cls-3 {
        stroke: #f7f7f7;
        stroke-miterlimit: 10;
      }

      .cls-1, .cls-3 {
        stroke-width: 1.5px;
      }

      .cls-2, .cls-3 {
        fill: none;
      }

      .cls-2 {
        stroke-width: 1.48px;
      }

      .cls-4 {
        fill: #f7f7f7;
      }
    </style>
  </defs>
  <g id="Capa_2" data-name="Capa 2">
    <g id="Capa_1-2" data-name="Capa 1">
      <g>
        <g>
          <rect class="cls-1" x="0.75" y="0.75" width="102.05" height="61.57"/>
          <rect class="cls-2" x="11.69" y="11.42" width="80.18" height="39.58"/>
          <line class="cls-3" x1="0.75" y1="0.75" x2="11.69" y2="11.69"/>
          <line class="cls-3" x1="102.52" y1="0.75" x2="91.58" y2="11.69"/>
          <line class="cls-3" x1="102.52" y1="62" x2="91.58" y2="51.06"/>
          <line class="cls-3" x1="0.75" y1="62" x2="11.69" y2="51.06"/>
        </g>
        <g>
          <path class="cls-4" d="M47.84,32.23A5.64,5.64,0,0,1,50,30a5.93,5.93,0,0,1,3.05-.8,5.65,5.65,0,0,1,2.71.68,4.8,4.8,0,0,1,1.91,1.76V25h2.1V41.87h-2.1V39.53a4.91,4.91,0,0,1-1.82,1.83,5.44,5.44,0,0,1-2.83.72A5.68,5.68,0,0,1,47.84,39a7.24,7.24,0,0,1-.77-3.37A7.06,7.06,0,0,1,47.84,32.23Zm9.23.92a4,4,0,0,0-1.54-1.61A4.18,4.18,0,0,0,53.4,31a4.27,4.27,0,0,0-2.12.55,4,4,0,0,0-1.52,1.59,5.09,5.09,0,0,0-.57,2.47,5.2,5.2,0,0,0,.57,2.49,4.1,4.1,0,0,0,1.52,1.62,4.31,4.31,0,0,0,4.25,0,4,4,0,0,0,1.54-1.62,5.15,5.15,0,0,0,.57-2.47A5.08,5.08,0,0,0,57.07,33.15Z"/>
          <path class="cls-4" d="M74.57,36.41h-10a3.91,3.91,0,0,0,4,3.91,3.9,3.9,0,0,0,2.25-.62A3.31,3.31,0,0,0,72.15,38h2.23a5.35,5.35,0,0,1-2,2.93,6.07,6.07,0,0,1-3.74,1.13,6.36,6.36,0,0,1-3.18-.8A5.64,5.64,0,0,1,63.27,39a6.92,6.92,0,0,1-.8-3.4,7.25,7.25,0,0,1,.77-3.4A5.47,5.47,0,0,1,65.42,30a6.51,6.51,0,0,1,3.22-.79,6.26,6.26,0,0,1,3.15.78,5.31,5.31,0,0,1,2.1,2.13,6.19,6.19,0,0,1,.74,3.06C74.63,35.55,74.61,36,74.57,36.41ZM72,32.68a3.45,3.45,0,0,0-1.43-1.3,4.5,4.5,0,0,0-2-.44,3.84,3.84,0,0,0-2.68,1,4.12,4.12,0,0,0-1.26,2.78h7.88A3.82,3.82,0,0,0,72,32.68Z"/>
          <path class="cls-4" d="M79.44,25V41.87H77.37V25Z"/>
        </g>
      </g>
    </g>
  </g>
</svg>
