<svg width="139" height="85" viewBox="0 0 139 85" fill="none" xmlns="http://www.w3.org/2000/svg">
    <path d="M137.072 83.096H1.00037V0.999992H137.072V83.096Z" fill="#1A1A1A" stroke="#F7F7F7"
        stroke-width="2.00267" stroke-miterlimit="10" />
    <path d="M122.492 67.996H15.579V15.2253H122.492V67.996Z" stroke="#F7F7F7" stroke-width="1.97467"
        stroke-miterlimit="10" />
    <path d="M1.00012 1.00054L15.5801 15.5805" stroke="#F7F7F7" stroke-width="2.00267"
        stroke-miterlimit="10" />
    <path d="M136.692 1.00054L122.112 15.5805" stroke="#F7F7F7" stroke-width="2.00267"
        stroke-miterlimit="10" />
    <path d="M136.692 82.6626L122.112 68.0826" stroke="#F7F7F7" stroke-width="2.00267"
        stroke-miterlimit="10" />
    <path d="M1.00012 82.6627L15.5801 68.0827" stroke="#F7F7F7" stroke-width="2.00267"
        stroke-miterlimit="10" />
    <g clip-path="url(#clip0_17_19)">
        <path
            d="M58.4187 36.6175C58.5179 37.1571 58.5748 37.7769 58.5748 38.4098C58.5748 39.1856 58.4887 39.9425 58.3268 40.6702L58.34 40.6017C57.2073 46.3825 53.5289 49.2729 47.3048 49.2729H46.4443C46.44 49.2729 46.4356 49.2729 46.4298 49.2729C46.1046 49.2729 45.8071 49.3954 45.5825 49.5967L45.5839 49.5952C45.3448 49.8052 45.1756 50.091 45.1187 50.4162L45.1173 50.425L45.0385 50.7954L43.9637 57.5533L43.9258 57.8465C43.866 58.1819 43.6925 58.4692 43.4489 58.6748L43.4475 58.6762C43.2185 58.8775 42.9166 59 42.5856 59C42.5841 59 42.5827 59 42.5812 59H37.6812C37.671 59 37.6593 59.0015 37.6477 59.0015C37.4012 59.0015 37.1825 58.8877 37.0396 58.7098L37.0381 58.7083C36.92 58.5596 36.8485 58.37 36.8485 58.1629C36.8485 58.109 36.8529 58.055 36.8631 58.0025L36.8616 58.0083C36.9793 57.2792 37.1518 56.1854 37.3793 54.7271C37.6068 53.2687 37.7794 52.175 37.8971 51.4458C38.0147 50.7167 38.1907 49.6278 38.425 48.1792C38.6593 46.7306 38.8352 45.6417 38.9529 44.9125C38.9689 44.5071 39.3 44.1848 39.7068 44.1848C39.7375 44.1848 39.7666 44.1862 39.7958 44.1906H39.7929H42.3493C42.5141 44.195 42.7066 44.1979 42.9006 44.1979C44.3371 44.1979 45.7385 44.0462 47.0889 43.756L46.9577 43.7794C49.1379 43.339 51.0366 42.3473 52.5679 40.9575L52.5577 40.9662C53.911 39.6683 54.9508 38.0554 55.5604 36.2442L55.5852 36.161C55.8491 35.4392 56.0854 34.5656 56.2531 33.6687L56.2691 33.5637C56.2735 33.5083 56.291 33.4587 56.3187 33.415C56.3318 33.4019 56.3493 33.3946 56.3698 33.3946C56.3771 33.3946 56.3829 33.396 56.3887 33.3975C56.4339 33.415 56.4718 33.4383 56.5054 33.4675C57.5058 34.2171 58.2043 35.321 58.4143 36.5898L58.4187 36.6175ZM55.0587 31.1094C55.0208 32.7748 54.6941 34.3542 54.1283 35.8125L54.1604 35.7177C53.2548 38.5994 51.0891 40.8467 48.3271 41.8485L48.2614 41.869C46.7943 42.3852 45.1012 42.6842 43.3396 42.6856H43.3381C43.3381 42.6992 42.7518 42.706 41.5793 42.706L39.8206 42.6856C39.7564 42.6783 39.6806 42.674 39.6048 42.674C38.5198 42.674 37.6273 43.4965 37.5164 44.5508L37.515 44.5596C37.4897 44.6636 36.9365 48.114 35.8554 54.9108C35.8525 55.0202 35.7621 55.1077 35.6527 55.1077C35.6425 55.1077 35.6308 55.1062 35.6206 55.1048H29.8616C29.341 55.1033 28.9196 54.6819 28.9196 54.1612C28.9196 54.1146 28.9225 54.0694 28.9298 54.0256V54.03L33.4608 25.2994C33.525 24.9217 33.7189 24.5965 33.9946 24.3675L33.9975 24.366C34.2614 24.1356 34.61 23.9956 34.9906 23.9956H34.995H46.6748C47.3646 24.0233 48.0179 24.1152 48.6479 24.264L48.5779 24.2494C49.415 24.4142 50.1441 24.63 50.8441 24.9056L50.7552 24.875C52.0706 25.3475 53.16 26.1817 53.9343 27.2579L53.9475 27.2769C54.6416 28.3035 55.0543 29.5679 55.0543 30.93C55.0543 30.9912 55.0529 31.0525 55.0514 31.1137V31.105L55.0587 31.1094Z"
            fill="#F7F7F7" />
    </g>
    <defs>
        <clipPath id="clip0_17_19">
            <rect width="35" height="35" fill="white" transform="translate(26 24)" />
        </clipPath>
    </defs>
</svg>