<?xml version="1.0" encoding="UTF-8" standalone="no"?>
<!-- Created with Inkscape (http://www.inkscape.org/) -->

<svg
   width="42.096878mm"
   height="42.257645mm"
   viewBox="0 0 42.096878 42.257645"
   version="1.1"
   id="svg1"
   xml:space="preserve"
   xmlns:inkscape="http://www.inkscape.org/namespaces/inkscape"
   xmlns:sodipodi="http://sodipodi.sourceforge.net/DTD/sodipodi-0.dtd"
   xmlns="http://www.w3.org/2000/svg"
   xmlns:svg="http://www.w3.org/2000/svg"><sodipodi:namedview
     id="namedview1"
     pagecolor="#ffffff"
     bordercolor="#000000"
     borderopacity="0.25"
     inkscape:showpageshadow="2"
     inkscape:pageopacity="0.0"
     inkscape:pagecheckerboard="0"
     inkscape:deskcolor="#d1d1d1"
     inkscape:document-units="mm" /><defs
     id="defs1" /><g
     inkscape:label="Capa 1"
     inkscape:groupmode="layer"
     id="layer1"
     transform="translate(-148.04798,-133.9224)"><path
       style="fill:#1a1a1a;fill-opacity:1"
       d="m 165.44032,175.80406 c -15.53277,-3.0475 -22.70901,-22.03607 -12.92827,-34.20869 11.68076,-14.53731 35.36539,-7.17526 37.50537,11.65805 1.54056,13.5579 -11.13463,25.18797 -24.5771,22.55061 z m 7.26671,-4.61548 c 12.58861,-3.23495 17.33,-18.58656 8.68947,-28.13465 -10.56206,-11.67146 -29.90011,-4.24023 -29.8591,11.47426 0.029,11.12648 10.53366,19.39356 21.16963,16.66039 z m -6.11876,-0.16415 c -13.89243,-1.494 -19.61966,-18.96127 -9.38328,-28.61775 9.2528,-8.72862 24.39892,-4.35431 27.54734,7.95587 2.91737,11.40683 -6.33696,21.93377 -18.16406,20.66188 z m 6.3134,-5.58711 c 4.17873,-1.91308 6.33368,-6.90141 4.25808,-9.85672 -0.44298,-0.63073 -0.6863,-1.85595 -1.22025,-6.14435 -0.71533,-5.74523 -0.97266,-6.51905 -2.26206,-6.80225 -2.34006,-0.51396 -3.09749,0.79725 -2.61206,4.52184 0.42083,3.229 0.4294,3.16102 -0.34614,2.74596 -0.71504,-0.38268 -1.9299,-0.12746 -2.52537,0.53052 -0.41649,0.46022 -0.52194,0.47048 -1.20492,0.1173 -1.01027,-0.52243 -1.63456,-0.4871 -2.42855,0.13746 -0.66682,0.52451 -0.66682,0.52451 -0.85446,-1.22768 -0.36392,-3.39823 -4.63551,-4.39991 -4.63551,-1.08701 0,1.32144 1.29424,11.34422 1.62522,12.58593 1.14994,4.31408 7.48697,6.63946 12.20602,4.479 z m -6.81978,-0.0172 c -4.17372,-1.38784 -4.77754,-2.52001 -5.82141,-10.91534 -0.93349,-7.50753 -0.73739,-8.33431 1.76954,-7.46039 0.87892,0.30639 0.86944,0.27377 1.51786,5.22605 0.54082,4.13052 0.85125,4.77133 2.31143,4.77133 0.3752,0 0.90678,0.30424 1.27129,0.7276 0.65387,0.75945 6.11665,1.19029 5.87083,0.46302 -0.0514,-0.15214 -1.18385,-0.26458 -2.66468,-0.26458 -4.28072,0 -4.82987,-2.45143 -0.68299,-3.04888 5.92601,-0.85377 7.67292,-0.0567 7.67292,3.50077 0,5.03512 -5.97278,8.75346 -11.24479,7.00042 z m -1.25668,-9.37054 c -0.78339,-0.87903 -0.90349,-4.41093 -0.16751,-4.92643 0.82649,-0.57889 1.90101,-0.54478 2.46483,0.0782 0.54691,0.60432 0.93067,3.72371 0.45811,3.72371 -0.162,0 -0.47925,0.35719 -0.705,0.79375 -0.47267,0.91404 -1.39761,1.06323 -2.05043,0.33073 z m 3.50273,-2.11163 c -0.002,-0.40295 -0.0696,-1.14936 -0.15117,-1.65868 -0.26678,-1.66633 1.4674,-2.7197 2.75756,-1.675 1.33358,1.07987 1.20131,3.48361 -0.20165,3.66444 -0.66616,0.0859 -1.4791,0.21141 -1.80652,0.279 -0.50316,0.10387 -0.59576,0.009 -0.59822,-0.60976 z m 5.55096,0.26419 -1.46341,-0.0937 -0.48301,-4.15571 c -0.26566,-2.28564 -0.53836,-4.5129 -0.60599,-4.94946 -0.23934,-1.5448 1.55758,-2.53486 2.78977,-1.5371 0.54368,0.44024 0.67226,1.00928 1.24553,5.51193 0.75196,5.90616 0.72437,5.43034 0.31124,5.36785 -0.1819,-0.0275 -0.98926,-0.0922 -1.79413,-0.14377 z"
       id="path1"
       sodipodi:nodetypes="ssssssssssssssssssssssssssssssssssssscssssccccssscccssssssc" /></g></svg>
