<svg xmlns="http://www.w3.org/2000/svg" width="108.73" height="84.13" viewBox="0 0 108.73 84.13">
  <defs>
    <style>
      .cls-1 {
        fill: #f50;
        stroke: #000;
        stroke-miterlimit: 10;
        stroke-width: 1.34px;
      }
    </style>
  </defs>
  <g id="Capa_2" data-name="Capa 2">
    <g id="Capa_1-2" data-name="Capa 1">
      <g>
        <path class="cls-1" d="M.67,78.64V5.5A4.83,4.83,0,0,1,5.5.67H31.19a4.83,4.83,0,0,1,3.93,2l5.8,8.12h52a4.82,4.82,0,0,1,4.82,4.82V83.46H5.5A4.82,4.82,0,0,1,.67,78.64Z"/>
        <path class="cls-1" d="M7.06,83.46V27.28a4.82,4.82,0,0,1,4.82-4.83h91.35a4.83,4.83,0,0,1,4.83,4.83V78.64a4.82,4.82,0,0,1-4.83,4.82Z"/>
      </g>
    </g>
  </g>
</svg>
