<svg xmlns="http://www.w3.org/2000/svg" width="127.35" height="189.92" viewBox="0 0 127.35 189.92">
  <defs>
    <style>
      .cls-1 {
      fill: #f7f7f7;
      stroke: #000;
      stroke-width: 1.46px;
      }

      .cls-1, .cls-2 {
      stroke-miterlimit: 10;
      }

      .cls-2 {
      fill: none;
      stroke: #1a1a1a;
      stroke-width: 1.33px;
      }

      .cls-3 {
      fill: #1a1a1a;
      }
    </style>
  </defs>
  <g id="Capa_2" data-name="Capa 2">
    <g id="Capa_1-2" data-name="Capa 1">
      <g>
        <polygon class="cls-1"
          points="0.73 0.73 0.73 101.6 35.86 101.6 35.86 189.19 126.62 189.19 126.62 101.6 126.62 97.6 126.62 0.73 0.73 0.73" />
        <line class="cls-1" x1="0.73" y1="0.73" x2="14.22" y2="14.22" />
        <line class="cls-1" x1="126.27" y1="0.73" x2="112.78" y2="14.22" />
        <line class="cls-1" x1="126.27" y1="189.08" x2="112.78" y2="175.6" />
        <line class="cls-1" x1="36.17" y1="189.08" x2="49.66" y2="175.6" />
        <line class="cls-1" x1="0.73" y1="101.65" x2="14.22" y2="88.16" />
        <line class="cls-1" x1="35.74" y1="101.65" x2="49.23" y2="88.16" />
        <polygon class="cls-1"
          points="14.22 14.22 14.22 88.11 49.54 88.11 49.54 175.8 113.14 175.8 113.14 88.11 113.14 81.11 113.14 14.22 14.22 14.22" />
        <g>
          <path
            d="M57.38,36.47h-10a3.92,3.92,0,0,0,4.06,3.92,3.82,3.82,0,0,0,2.24-.63A3.28,3.28,0,0,0,55,38.09H57.2a5.39,5.39,0,0,1-2,2.92,6,6,0,0,1-3.73,1.13,6.21,6.21,0,0,1-3.18-.8,5.57,5.57,0,0,1-2.2-2.26,7.71,7.71,0,0,1,0-6.8A5.47,5.47,0,0,1,48.23,30a6.54,6.54,0,0,1,3.23-.78A6.32,6.32,0,0,1,54.6,30a5.47,5.47,0,0,1,2.11,2.13,6.36,6.36,0,0,1,.74,3.07C57.45,35.61,57.42,36,57.38,36.47Zm-2.6-3.73a3.34,3.34,0,0,0-1.42-1.29,4.41,4.41,0,0,0-2-.45,3.87,3.87,0,0,0-2.68,1,4.1,4.1,0,0,0-1.27,2.78h7.89A3.82,3.82,0,0,0,54.78,32.74Z" />
          <path
            d="M70,30.6a5.29,5.29,0,0,1,1.42,4v7.36H69.32V34.88A4,4,0,0,0,68.38,32a3.3,3.3,0,0,0-2.55-1,3.45,3.45,0,0,0-2.61,1,4.21,4.21,0,0,0-1,3v6.91H60.18V29.45h2.07v1.78a4.1,4.1,0,0,1,1.68-1.48,5.15,5.15,0,0,1,2.33-.53A5.05,5.05,0,0,1,70,30.6Z" />
          <path
            d="M77.29,31.16v7.36a1.75,1.75,0,0,0,.39,1.29,1.88,1.88,0,0,0,1.34.37h1.53v1.76H78.68a3.75,3.75,0,0,1-2.6-.8,3.42,3.42,0,0,1-.86-2.62V31.16H73.6V29.45h1.62V26.31h2.07v3.14h3.26v1.71Z" />
          <path
            d="M94.37,36.47h-10a4,4,0,0,0,1.26,2.88,4,4,0,0,0,2.79,1,3.83,3.83,0,0,0,2.25-.63A3.28,3.28,0,0,0,92,38.09h2.23a5.32,5.32,0,0,1-2,2.92,6,6,0,0,1-3.74,1.13,6.26,6.26,0,0,1-3.18-.8,5.61,5.61,0,0,1-2.19-2.26,7,7,0,0,1-.8-3.41,7.18,7.18,0,0,1,.77-3.39A5.5,5.5,0,0,1,85.23,30a6.5,6.5,0,0,1,3.22-.78A6.36,6.36,0,0,1,91.6,30a5.38,5.38,0,0,1,2.1,2.13,6.25,6.25,0,0,1,.74,3.07A11.08,11.08,0,0,1,94.37,36.47Zm-2.59-3.73a3.36,3.36,0,0,0-1.43-1.29,4.38,4.38,0,0,0-2-.45,3.89,3.89,0,0,0-2.68,1,4.14,4.14,0,0,0-1.26,2.78H92.3A3.82,3.82,0,0,0,91.78,32.74Z" />
          <path
            d="M100.81,29.82a4.78,4.78,0,0,1,2.47-.6v2.15h-.54q-3.49,0-3.49,3.78v6.79H97.18V29.45h2.07v2A3.91,3.91,0,0,1,100.81,29.82Z" />
        </g>
        <g>
          <polyline class="cls-2" points="94.97 52.85 94.97 65.58 59.31 65.58" />
          <polygon class="cls-3" points="61.25 58.96 49.78 65.58 61.25 72.2 61.25 58.96" />
        </g>
      </g>
    </g>
  </g>
</svg>