<svg id="Capa_1" data-name="Capa 1" xmlns="http://www.w3.org/2000/svg" width="1080" height="147.85"
  viewBox="0 0 1080 147.85" style="opacity: 0.1">
  <defs>
    <style>
      .cls-1 {
      fill: none;
      stroke: #f7f7f7;
      stroke-miterlimit: 10;
      stroke-width: 1px;
      }
    </style>
  </defs>
  <g>
    <path class="cls-1"
      d="M33.81,39.73V54.37Q43.27,38.67,64,38.66a38.72,38.72,0,0,1,19.72,5A34.43,34.43,0,0,1,97.2,58a42.53,42.53,0,0,1,14.37-14,37.82,37.82,0,0,1,19.73-5.27q18.21,0,28.92,11.25t10.71,31.24v58.21H140.58V85.26q0-9.63-5.09-14.91t-14-5.26q-8.94,0-14,5.26t-5.09,14.91v54.1H72V85.26q0-9.63-5.09-14.91t-14-5.26q-8.94,0-14,5.26T33.81,85.26v54.1H3.28V39.73Z" />
    <path class="cls-1"
      d="M196.73,126.51q-15.09-14.1-15.08-37.14t15-36.87q15-13.83,37.14-13.84t37,13.84q14.9,13.85,14.91,36.87t-14.82,37.14q-14.84,14.1-37,14.1T196.73,126.51Zm51.87-18.39q6.06-6.44,6.07-18.57t-6.25-18.48a20.15,20.15,0,0,0-14.82-6.34,19.86,19.86,0,0,0-14.73,6.34q-6.17,6.34-6.16,18.48t6.34,18.57A20.28,20.28,0,0,0,234,114.54,19.43,19.43,0,0,0,248.6,108.12Z" />
    <path class="cls-1"
      d="M1032.35,83.52q-7.51-7-7.52-18.51t7.48-18.38q7.47-6.9,18.51-6.9t18.47,6.9q7.43,6.9,7.43,18.38t-7.39,18.51a25.72,25.72,0,0,1-18.42,7A26.19,26.19,0,0,1,1032.35,83.52Zm25.86-9.17q3-3.21,3-9.26t-3.11-9.21a10.06,10.06,0,0,0-7.39-3.16,9.9,9.9,0,0,0-7.34,3.16q-3.08,3.16-3.07,9.21t3.16,9.26a10.07,10.07,0,0,0,7.43,3.2A9.66,9.66,0,0,0,1058.21,74.35Z" />
    <path class="cls-1"
      d="M365,39.73h30.53v99.63H365V124.72q-9.47,15.72-30.18,15.71-17.13,0-27.76-11.43T296.45,97.94V39.73H326.8v54.1q0,9.65,5.09,14.91t14,5.27q8.93,0,14-5.27T365,93.83Z" />
    <path class="cls-1"
      d="M529.72,140.61q-21.79,0-35.71-14T480.08,89.37q0-23.2,13.84-37t35.8-13.75q22,0,36.42,13.57T580.6,89.9a62,62,0,0,1-.71,9.65H511.33a17.38,17.38,0,0,0,16.69,15c3.87,0,6.76-.38,8.66-1.16a15.4,15.4,0,0,0,4.2-2.32,30.66,30.66,0,0,0,3.48-3.84h33a43.8,43.8,0,0,1-17.14,24.2Q547.4,140.6,529.72,140.61Zm13-71.51a19.45,19.45,0,0,0-12.67-4.37,18,18,0,0,0-12.32,4.37,19,19,0,0,0-6.25,11.34h37.31A16.26,16.26,0,0,0,542.75,69.1Z" />
    <path class="cls-1"
      d="M603.55,126.33q-13.21-14.28-13.21-36.6T603.55,53q13.22-14.37,32.23-14.38T665,52.77V7.24H695.5V139.36H665V124.9q-11.07,15.71-29.64,15.71T603.55,126.33Zm54.81-18.57q6.6-6.44,6.61-18.21t-6.61-18.13a21.24,21.24,0,0,0-30.35.1q-6.6,6.42-6.61,18.21T628,107.85a21.23,21.23,0,0,0,30.35-.09Z" />
    <path class="cls-1"
      d="M756.56,140.61q-21.78,0-35.71-14T706.93,89.37q0-23.2,13.83-37t35.8-13.75q22,0,36.42,13.57T807.45,89.9a61.9,61.9,0,0,1-.72,9.65H738.17a17.38,17.38,0,0,0,16.69,15c3.87,0,6.76-.38,8.66-1.16a15.09,15.09,0,0,0,4.2-2.32,30.66,30.66,0,0,0,3.48-3.84h33a43.8,43.8,0,0,1-17.14,24.2Q774.23,140.6,756.56,140.61Zm13-71.51a19.43,19.43,0,0,0-12.67-4.37A18,18,0,0,0,744.6,69.1a19,19,0,0,0-6.25,11.34h37.31A16.22,16.22,0,0,0,769.59,69.1Z" />
    <path class="cls-1" d="M806.37,39.73h32.5l22.67,74.1,22.67-74.1h32.5l-35.35,99.63H841.72Z" />
    <path class="cls-1"
      d="M947.6,46.76q5.07-7,14.55-7a21,21,0,0,1,16.06,7.16q6.59,7.17,6.59,18.29t-6.59,18.25a20.93,20.93,0,0,1-15.93,7.12,16.83,16.83,0,0,1-14.68-7.84v22.73H932.38V40.26H947.6ZM966,74.22q3.29-3.16,3.29-9T966,56.11a10.58,10.58,0,0,0-15.13,0q-3.3,3.16-3.29,9t3.29,9.08a10.52,10.52,0,0,0,7.56,3.21A10.66,10.66,0,0,0,966,74.22Z" />
    <path class="cls-1"
      d="M474.7,64.73h-33l-.14,74.7H410.83s-.06-46.43.07-68.61a48.37,48.37,0,0,1,1.38-11.24c2.77-11.16,11.3-18.34,23.35-19.9a83.52,83.52,0,0,1,10-.67c9.47-.09,18.95,0,28.43,0h.56C474.79,48.26,474.66,55.19,474.7,64.73Z" />
    <path class="cls-1"
      d="M1022,52.72h-16.45L1005.48,90H990.16s0-23.14,0-34.2a24,24,0,0,1,.69-5.6c1.37-5.57,5.63-9.15,11.63-9.92a41.52,41.52,0,0,1,5-.34c4.73,0,9.45,0,14.17,0h.28C1022,44.51,1022,48,1022,52.72Z" />
  </g>
</svg>