<?xml version="1.0" encoding="UTF-8" standalone="no"?>
<!-- Created with Inkscape (http://www.inkscape.org/) -->

<svg
   width="252.11377mm"
   height="218.89246mm"
   viewBox="0 0 252.11377 218.89246"
   version="1.1"
   id="svg1"
   sodipodi:docname="pomodoro.svg"
   xmlns:inkscape="http://www.inkscape.org/namespaces/inkscape"
   xmlns:sodipodi="http://sodipodi.sourceforge.net/DTD/sodipodi-0.dtd"
   xmlns="http://www.w3.org/2000/svg"
   xmlns:svg="http://www.w3.org/2000/svg">
  <sodipodi:namedview
     id="namedview1"
     pagecolor="#ffffff"
     bordercolor="#000000"
     borderopacity="0.25"
     inkscape:showpageshadow="2"
     inkscape:pageopacity="0.0"
     inkscape:pagecheckerboard="0"
     inkscape:deskcolor="#d1d1d1"
     inkscape:document-units="mm" />
  <defs
     id="defs1">
    <clipPath
       clipPathUnits="userSpaceOnUse"
       id="clipPath13">
      <ellipse
         style="fill:#22e9ec;fill-opacity:1;stroke:none;stroke-width:2.93195;stroke-dasharray:none;stroke-opacity:1"
         id="ellipse14"
         cx="-145.4937"
         cy="83.009285"
         rx="68.582054"
         ry="64.412041" />
    </clipPath>
    <clipPath
       clipPathUnits="userSpaceOnUse"
       id="clipPath31">
      <path
         d="m -119.73131,56.67652 c 4.68897,-2.321242 7.17585,-6.864572 7.19462,-11.763761 0.0305,-7.971981 -5.44192,-12.1954 -8.6487,-12.200049 -4.65494,-0.007 -9.15351,4.404659 -9.33648,12.48409 -0.14877,6.56904 5.26864,13.326919 10.79056,11.480689 z"
         style="fill:#217614;fill-opacity:1;stroke:none;stroke-width:3;stroke-dasharray:none;stroke-opacity:1"
         id="path32"
         sodipodi:nodetypes="cscscc" />
    </clipPath>
    <clipPath
       clipPathUnits="userSpaceOnUse"
       id="clipPath31-2">
      <path
         d="m -119.73131,56.67652 c 4.68897,-2.321242 7.17585,-6.864572 7.19462,-11.763761 0.0305,-7.971981 -5.44192,-12.1954 -8.6487,-12.200049 -4.65494,-0.007 -9.15351,4.404659 -9.33648,12.48409 -0.14877,6.56904 5.26864,13.326919 10.79056,11.480689 z"
         style="fill:#217614;fill-opacity:1;stroke:none;stroke-width:3;stroke-dasharray:none;stroke-opacity:1"
         id="path32-6"
         sodipodi:nodetypes="cscscc" />
    </clipPath>
  </defs>
  <g
     inkscape:label="Capa 1"
     inkscape:groupmode="layer"
     id="layer1"
     transform="translate(34.660417,-10.847924)">
    <g
       id="g64"
       transform="translate(377.08357,-117.684)">
      <ellipse
         style="fill:#ce8b8d;fill-opacity:1;stroke:none;stroke-width:3.09346;stroke-dasharray:none;stroke-opacity:1"
         id="path63"
         cx="-285.6745"
         cy="310.27609"
         rx="36.181141"
         ry="3.3036706" />
      <g
         id="g63"
         transform="translate(-210.4466,51.362143)">
        <g
           id="g30"
           transform="translate(312.85481,98.616146)">
          <g
             id="g29"
             transform="translate(79.635452,-41.35505)">
            <g
               id="g28"
               transform="translate(-6.0737319,-88.854999)">
              <g
                 id="g14"
                 transform="translate(-749.57058,259.17915)">
                <ellipse
                   style="fill:#bd0626;fill-opacity:1;stroke:#000000;stroke-width:3;stroke-dasharray:none;stroke-opacity:1"
                   id="path12"
                   cx="288.34247"
                   cy="-38.441093"
                   rx="73.479935"
                   ry="66.466133" />
                <ellipse
                   style="fill:#ec222b;fill-opacity:0.983547;stroke:none;stroke-width:3;stroke-dasharray:none;stroke-opacity:1"
                   id="path13"
                   cx="-146.9937"
                   cy="97.025574"
                   rx="71.802643"
                   ry="64.412041"
                   clip-path="url(#clipPath13)"
                   transform="translate(434.89451,-132.18461)" />
                <g
                   id="g12"
                   transform="translate(144.00187,-157.52197)">
                  <g
                     id="g11">
                    <g
                       id="g8"
                       transform="translate(-73.000162,114.71626)">
                      <ellipse
                         style="fill:#000000;fill-opacity:1;stroke-width:0.337397"
                         id="ellipse3"
                         cx="251.11162"
                         cy="-7.8030734"
                         rx="14.191532"
                         ry="14.65345" />
                      <ellipse
                         style="fill:#ffffff;fill-opacity:1;stroke-width:0.142842"
                         id="ellipse4"
                         cx="247.80052"
                         cy="-12.650364"
                         rx="4.9933023"
                         ry="4.8472986" />
                    </g>
                    <g
                       id="g10">
                      <ellipse
                         style="fill:#000000;fill-opacity:1;stroke-width:0.337397"
                         id="ellipse8"
                         cx="110.45268"
                         cy="106.76351"
                         rx="14.191532"
                         ry="14.65345" />
                      <ellipse
                         style="fill:#ffffff;fill-opacity:1;stroke-width:0.142842"
                         id="ellipse5"
                         cx="107.5635"
                         cy="102.23197"
                         rx="4.9933023"
                         ry="4.8472986" />
                    </g>
                  </g>
                  <g
                     id="g7"
                     transform="translate(0.35004168,-0.13846248)">
                    <ellipse
                       style="fill:#fec3b0;fill-opacity:1;stroke-width:0.165821"
                       id="ellipse6"
                       cx="187.30887"
                       cy="125.71847"
                       rx="7.5534821"
                       ry="4.3182321" />
                    <ellipse
                       style="fill:#fec3b0;fill-opacity:1;stroke-width:0.165821"
                       id="ellipse7"
                       cx="110.96651"
                       cy="115.89071"
                       rx="7.5534821"
                       ry="4.3182321"
                       transform="rotate(5.2663047)" />
                  </g>
                </g>
              </g>
              <path
                 d="m -475.51622,214.35209 c 0.71976,-2.21865 3.67131,-1.79081 5.0894,-0.28993 1.43559,1.51942 2.88547,2.27865 4.71136,2.4671 0.46832,0.0483 0.94251,0.23337 1.40495,0.145 0.41859,-0.08 0.75583,-0.39396 1.13374,-0.59094 1.42982,-0.74526 2.34055,-0.72867 4.27665,0.0779 0.51364,0.21398 0.98659,0.59368 1.54093,0.64195 0.36155,0.0315 0.70817,-0.15911 1.06226,-0.23867 1.66156,-0.37333 3.04022,-1.19041 4.41472,-2.61643 4.06894,-4.22142 4.93577,0.34941 5.0185,4.32581 0.55271,26.56655 -33.74876,22.03273 -28.65251,-3.92179 z"
                 style="fill:#be0a27;fill-opacity:1;stroke:#000000;stroke-width:2;stroke-dasharray:none;stroke-opacity:1"
                 id="path1-5"
                 sodipodi:nodetypes="ssssssssscs" />
              <path
                 d="m -471.32305,219.00354 v 1.57893 c 0,11.19877 8.12611,-4.67431 16.96526,3.59362 0.69757,0.65249 1.3877,1.18636 1.53361,1.18636 0.56666,0 1.57446,-4.52025 1.36839,-6.13766 -0.0129,-0.10149 -1.73211,1.61254 -6.83556,1.47142 -1.19831,-0.0331 -2.39841,0.0674 -3.59624,0.0201 -0.92578,-0.0366 -1.04416,-0.36553 -1.58763,-0.45099 -0.7811,-0.12283 -2.37062,-0.0834 -2.37062,-0.0834 l -2.26842,-0.4119"
                 style="fill:#ec212b;fill-opacity:1"
                 id="path1-6"
                 sodipodi:nodetypes="cssssssscc" />
              <path
                 d="m -463.84361,231.63467 c -1.10122,-0.26161 7.64253,2.05408 -6e-5,1.8e-4 z m 10.65571,-5.45863 -1.21061,-1.56864 c -4.82943,-4.34275 -10.32587,-2.31757 -15.48094,1.08686 -0.99043,0.92133 9.69112,11.80854 16.69155,0.48178 z"
                 style="fill:#fec3b0;fill-opacity:1"
                 id="path1-3"
                 sodipodi:nodetypes="ccccccc" />
              <path
                 d="m -463.90598,231.55352 c -1.10122,-0.26161 -7.39269,-2.48912 -7.87282,-10.53697 l -0.15113,-2.53321 h 0.27375 c 2.7774,1.62455 6.22087,0.89201 9.15085,1.8995 -2.97455,-0.44812 -6.10363,-0.004 -8.81772,-1.3793 v 1.57893 c 0,11.19877 8.12611,-4.67431 16.96526,3.59362 0.69757,0.65249 1.3877,1.18636 1.53361,1.18636 0.56666,0 1.57446,-4.52025 1.36839,-6.13766 -0.0129,-0.10149 -0.7976,0.17771 -1.7437,0.62044 l -1.7202,0.80498 c 0,0 -7.97516,0.13004 -7.89368,0.0295 1.97643,-0.30546 4.23022,-0.16342 6.30695,-0.21802 0.96996,-0.0255 2.44878,-0.74978 3.33976,-1.18566 0.89099,-0.43588 1.75419,-0.79251 1.91823,-0.79251 h 0.29826 c 0,8.52538 -5.31328,15.12408 -12.95587,13.07018 z m 10.65571,-5.45863 -1.42961,-1.30583 c -4.82943,-4.34275 -10.08754,-2.48908 -15.009,0.97375 -0.99043,0.92133 9.43818,11.65884 16.43861,0.33208 z"
                 style="fill:#000000"
                 id="path1-1"
                 sodipodi:nodetypes="cccsccssssscsssscscsscs" />
            </g>
            <ellipse
               style="fill:#6d1b01;fill-opacity:1;stroke:none;stroke-width:2.28999;stroke-dasharray:none;stroke-opacity:1"
               id="path28"
               cx="-509.30045"
               cy="177.60249"
               rx="1.9615545"
               ry="2.2299778" />
            <ellipse
               style="fill:#6d1b01;fill-opacity:1;stroke:none;stroke-width:2.28999;stroke-dasharray:none;stroke-opacity:1"
               id="ellipse28"
               cx="-192.99435"
               cy="421.1459"
               rx="1.9615545"
               ry="2.2299778"
               transform="rotate(42.770654)" />
          </g>
          <ellipse
             style="fill:#fec3b0;fill-opacity:1;stroke:none;stroke-width:1.53666;stroke-dasharray:none;stroke-opacity:1"
             id="path29"
             cx="-408.61707"
             cy="-162.27026"
             rx="4.9232202"
             ry="3.6291668"
             transform="matrix(0.87650137,-0.48139936,0.45713865,0.88939544,0,0)" />
          <ellipse
             style="fill:#fec3b0;fill-opacity:1;stroke:none;stroke-width:0.922141;stroke-dasharray:none;stroke-opacity:1"
             id="ellipse29"
             cx="32.264725"
             cy="422.44077"
             rx="2.548929"
             ry="2.524256"
             transform="matrix(-0.24792237,0.9687799,-0.99765423,0.06845466,0,0)" />
          <ellipse
             style="fill:#fec3b0;fill-opacity:1;stroke:none;stroke-width:1.27606;stroke-dasharray:none;stroke-opacity:1"
             id="ellipse30"
             cx="-27.232939"
             cy="451.8703"
             rx="3.3422201"
             ry="3.6864166"
             transform="matrix(-0.14638377,0.98922788,-0.98124049,0.1927877,0,0)" />
        </g>
        <g
           id="g62">
          <g
             id="g61">
            <path
               style="fill:#39cb23;fill-opacity:1;stroke:#000000;stroke-width:3;stroke-dasharray:none;stroke-opacity:1"
               d="m -80.652056,140.78215 c 0,0 3.212065,-12.86667 1.635233,-19.75801 -1.576832,-6.89134 1.946651,-8.40978 4.642281,-8.35137 2.695634,0.0584 8.719521,-0.50121 7.621971,8.11776 -1.097549,8.61897 -3.157085,10.11948 -1.011065,14.54993 2.146017,4.43046 6.5302,9.13741 1.262343,9.05915 -5.267857,-0.0783 -16.116215,0.80558 -15.162689,-0.92567 0.953524,-1.73124 1.011926,-2.69179 1.011926,-2.69179 z"
               id="path59" />
            <path
               style="fill:#0a9620;fill-opacity:1;stroke:none;stroke-width:3;stroke-dasharray:none;stroke-opacity:1"
               d="m -71.211698,121.71301 c -0.407813,-0.53883 0.615336,6.56116 -2.258597,14.22021 -2.873934,7.65904 2.481458,5.71002 3.680862,3.48885 1.199404,-2.22118 2.217234,-10.99156 2.511253,-13.99309 0.294015,-3.00153 1.360043,-6.60153 -0.630674,-5.58826 -1.99072,1.01327 -3.302844,1.87229 -3.302844,1.87229 z"
               id="path61" />
            <path
               style="fill:#39cb23;fill-opacity:1;stroke:#000000;stroke-width:3;stroke-dasharray:none;stroke-opacity:1"
               d="m -78.899151,114.11843 c 1.495825,-1.68006 4.384008,-1.77205 6.602084,-1.39759 1.945494,0.32845 4.243094,1.26636 5.067369,3.05895 0.57337,1.24694 0.396601,3.20867 -0.679158,4.06093 -2.687183,2.12891 -7.74644,1.65893 -10.263082,-0.6691 -1.249222,-1.15559 -1.815346,-3.83104 -0.727213,-5.05319 z"
               id="path60"
               sodipodi:nodetypes="saaaas" />
          </g>
          <g
             id="g59">
            <g
               id="g46"
               transform="matrix(-0.6619487,0.7583939,-0.87803188,-0.57175357,-97.426785,287.27135)">
              <path
                 d="m -139.42979,111.54449 c 4.97059,-1.63335 8.0762,-5.77842 8.78903,-10.62551 1.15989,-7.887211 -3.65882,-12.843495 -6.83258,-13.302524 -4.60697,-0.666571 -9.68531,3.063086 -11.01136,11.035055 -1.07815,6.481669 3.94725,14.116929 9.05477,12.893939 3.2e-4,-7e-5 1.4e-4,-9.6e-4 1.4e-4,-9.6e-4 z"
                 style="fill:#0a9620;fill-opacity:1;stroke:none;stroke-width:3;stroke-dasharray:none;stroke-opacity:1"
                 id="path44"
                 sodipodi:nodetypes="cscsac" />
              <path
                 d="m -119.73131,61.58222 c 4.68897,-2.32124 6.47382,-6.947162 6.49259,-11.846352 0.0305,-7.97198 -4.73989,-12.112808 -7.94667,-12.117458 -4.65494,-0.007 -9.10073,4.915706 -9.2837,12.995136 -0.14877,6.56904 5.21586,12.815874 10.73778,10.969644 z"
                 style="fill:#39cb23;fill-opacity:1;stroke:none;stroke-width:3;stroke-dasharray:none;stroke-opacity:1"
                 id="path45"
                 sodipodi:nodetypes="cscscc"
                 clip-path="url(#clipPath31)"
                 transform="matrix(1.0302276,0.14747957,-0.1477418,1.0320594,-6.7444844,66.710558)" />
              <ellipse
                 style="fill:#dddddd;fill-opacity:1;stroke:none;stroke-width:3;stroke-dasharray:none;stroke-opacity:1"
                 id="ellipse45"
                 cx="-139.52704"
                 cy="92.098694"
                 rx="2.9200599"
                 ry="5.0809045" />
              <path
                 d="m -130.56084,99.303002 c 0.29344,-5.127781 -5.131,-12.519833 -8.30474,-12.978962 -4.607,-0.666473 -9.22033,7.130649 -9.61912,12.327471 -0.39261,5.116379 5.43718,12.693559 7.50759,13.439459 4.79891,1.72888 10.10217,-7.29916 10.41627,-12.787968 z"
                 style="fill:none;fill-opacity:1;stroke:#000000;stroke-width:3;stroke-dasharray:none;stroke-opacity:1"
                 id="path46"
                 sodipodi:nodetypes="asasa" />
            </g>
            <g
               id="g49"
               transform="matrix(0.6619487,0.7583939,0.87803188,-0.57175357,-48.968391,288.46924)">
              <path
                 d="m -139.42979,111.54449 c 4.97059,-1.63335 8.0762,-5.77842 8.78903,-10.62551 1.15989,-7.887211 -3.65882,-12.843495 -6.83258,-13.302524 -4.60697,-0.666571 -9.68531,3.063086 -11.01136,11.035055 -1.07815,6.481669 3.94725,14.116929 9.05477,12.893939 3.2e-4,-7e-5 1.4e-4,-9.6e-4 1.4e-4,-9.6e-4 z"
                 style="fill:#0a9620;fill-opacity:1;stroke:none;stroke-width:3;stroke-dasharray:none;stroke-opacity:1"
                 id="path47"
                 sodipodi:nodetypes="cscsac" />
              <path
                 d="m -119.73131,61.58222 c 4.68897,-2.32124 6.47382,-6.947162 6.49259,-11.846352 0.0305,-7.97198 -4.73989,-12.112808 -7.94667,-12.117458 -4.65494,-0.007 -9.10073,4.915706 -9.2837,12.995136 -0.14877,6.56904 5.21586,12.815874 10.73778,10.969644 z"
                 style="fill:#39cb23;fill-opacity:1;stroke:none;stroke-width:3;stroke-dasharray:none;stroke-opacity:1"
                 id="path48"
                 sodipodi:nodetypes="cscscc"
                 clip-path="url(#clipPath31)"
                 transform="matrix(1.0302276,0.14747957,-0.1477418,1.0320594,-6.7444844,66.710558)" />
              <ellipse
                 style="fill:#dddddd;fill-opacity:1;stroke:none;stroke-width:1.58982;stroke-dasharray:none;stroke-opacity:1"
                 id="ellipse48"
                 cx="-179.05499"
                 cy="-14.284929"
                 rx="1.7371103"
                 ry="2.3986111"
                 transform="matrix(0.78132311,-0.62412675,0.25798318,0.96614941,0,0)" />
              <path
                 d="m -130.56084,99.303002 c 0.29344,-5.127781 -5.131,-12.519833 -8.30474,-12.978962 -4.607,-0.666473 -9.22033,7.130649 -9.61912,12.327471 -0.39261,5.116379 5.43718,12.693559 7.50759,13.439459 4.79891,1.72888 10.10217,-7.29916 10.41627,-12.787968 z"
                 style="fill:none;fill-opacity:1;stroke:#000000;stroke-width:3;stroke-dasharray:none;stroke-opacity:1"
                 id="path49"
                 sodipodi:nodetypes="asasa" />
            </g>
            <g
               id="g52"
               transform="matrix(0.61870163,0.9158166,-0.97011509,0.58407217,90.522942,210.55601)">
              <path
                 d="m -139.42979,111.54449 c 4.97059,-1.63335 8.0762,-5.77842 8.78903,-10.62551 1.15989,-7.887211 -3.65882,-12.843495 -6.83258,-13.302524 -4.60697,-0.666571 -9.68531,3.063086 -11.01136,11.035055 -1.07815,6.481669 3.94725,14.116929 9.05477,12.893939 3.2e-4,-7e-5 1.4e-4,-9.6e-4 1.4e-4,-9.6e-4 z"
                 style="fill:#0a9620;fill-opacity:1;stroke:none;stroke-width:3;stroke-dasharray:none;stroke-opacity:1"
                 id="path50"
                 sodipodi:nodetypes="cscsac" />
              <path
                 d="m -119.73131,61.58222 c 4.68897,-2.32124 6.47382,-6.947162 6.49259,-11.846352 0.0305,-7.97198 -4.73989,-12.112808 -7.94667,-12.117458 -4.65494,-0.007 -9.10073,4.915706 -9.2837,12.995136 -0.14877,6.56904 5.21586,12.815874 10.73778,10.969644 z"
                 style="fill:#39cb23;fill-opacity:1;stroke:none;stroke-width:3;stroke-dasharray:none;stroke-opacity:1"
                 id="path51"
                 sodipodi:nodetypes="cscscc"
                 clip-path="url(#clipPath31)"
                 transform="matrix(1.0302276,0.14747957,-0.1477418,1.0320594,-6.7444844,66.710558)" />
              <ellipse
                 style="fill:#dddddd;fill-opacity:1;stroke:none;stroke-width:2.18051;stroke-dasharray:none;stroke-opacity:1"
                 id="ellipse51"
                 cx="-148.86688"
                 cy="106.97187"
                 rx="2.1671267"
                 ry="3.6167769"
                 transform="matrix(0.99903353,0.04395461,0.04582646,0.99894942,0,0)" />
              <path
                 d="m -130.56084,99.303002 c 0.29344,-5.127781 -5.131,-12.519833 -8.30474,-12.978962 -4.607,-0.666473 -9.22033,7.130649 -9.61912,12.327471 -0.39261,5.116379 5.43718,12.693559 7.50759,13.439459 4.79891,1.72888 10.10217,-7.29916 10.41627,-12.787968 z"
                 style="fill:none;fill-opacity:1;stroke:#000000;stroke-width:3;stroke-dasharray:none;stroke-opacity:1"
                 id="path52"
                 sodipodi:nodetypes="asasa" />
            </g>
            <g
               id="g55"
               transform="rotate(-70.672486,-69.707265,61.523935)">
              <path
                 d="m -143.12064,116.49315 c 4.97059,-1.63335 11.76705,-10.72708 12.47988,-15.57417 1.15989,-7.887211 -3.65882,-12.843495 -6.83258,-13.302524 -4.60697,-0.666571 -11.80772,2.5967 -13.13377,10.568669 -1.07815,6.481665 3.46683,14.928725 7.48633,18.308985 2.56101,2.15373 1.4e-4,-9.6e-4 1.4e-4,-9.6e-4 z"
                 style="fill:#0a9620;fill-opacity:1;stroke:none;stroke-width:3;stroke-dasharray:none;stroke-opacity:1"
                 id="path53"
                 sodipodi:nodetypes="cscssc" />
              <path
                 d="m -119.73131,61.58222 c 4.68897,-2.32124 6.47382,-6.947162 6.49259,-11.846352 0.0305,-7.97198 -4.73989,-12.112808 -7.94667,-12.117458 -4.65494,-0.007 -10.5855,3.073433 -10.76847,11.152863 -0.14877,6.56904 6.70063,14.658147 12.22255,12.811917 z"
                 style="fill:#39cb23;fill-opacity:1;stroke:none;stroke-width:3;stroke-dasharray:none;stroke-opacity:1"
                 id="path54"
                 sodipodi:nodetypes="cscscc"
                 clip-path="url(#clipPath31-2)"
                 transform="matrix(1.07877,0.15645758,-0.15315218,1.0840532,-0.78981138,65.959654)" />
              <ellipse
                 style="fill:#dddddd;fill-opacity:1;stroke:none;stroke-width:1.54399;stroke-dasharray:none;stroke-opacity:1"
                 id="ellipse54"
                 cx="-126.17107"
                 cy="93.398712"
                 rx="1.6879779"
                 ry="2.3281438"
                 transform="matrix(0.99652602,-0.08328204,-0.10506489,0.99446537,0,0)" />
              <path
                 d="m -130.56084,99.303002 c 0.14567,-5.134104 -5.131,-12.519833 -8.30474,-12.978962 -4.607,-0.666473 -11.2097,7.637857 -12.17127,13.660221 -0.98864,6.191839 5.44772,16.497169 7.51813,17.243069 4.79891,1.72888 12.74879,-10.55476 12.95788,-17.924328 z"
                 style="fill:none;fill-opacity:1;stroke:#000000;stroke-width:3;stroke-dasharray:none;stroke-opacity:1"
                 id="path55"
                 sodipodi:nodetypes="asasa" />
            </g>
            <g
               id="g58"
               transform="translate(65.395283,49.609178)">
              <path
                 d="m -139.42979,111.54449 c 4.97059,-1.63335 8.0762,-5.77842 8.78903,-10.62551 1.15989,-7.887211 -3.65882,-12.843495 -6.83258,-13.302524 -4.60697,-0.666571 -9.68531,3.063086 -11.01136,11.035055 -1.07815,6.481669 3.94725,14.116929 9.05477,12.893939 3.2e-4,-7e-5 1.4e-4,-9.6e-4 1.4e-4,-9.6e-4 z"
                 style="fill:#0a9620;fill-opacity:1;stroke:none;stroke-width:3;stroke-dasharray:none;stroke-opacity:1"
                 id="path56"
                 sodipodi:nodetypes="cscsac" />
              <path
                 d="m -119.73131,61.58222 c 4.68897,-2.32124 6.47382,-6.947162 6.49259,-11.846352 0.0305,-7.97198 -4.73989,-12.112808 -7.94667,-12.117458 -4.65494,-0.007 -9.10073,4.915706 -9.2837,12.995136 -0.14877,6.56904 5.21586,12.815874 10.73778,10.969644 z"
                 style="fill:#39cb23;fill-opacity:1;stroke:none;stroke-width:3;stroke-dasharray:none;stroke-opacity:1"
                 id="path57"
                 sodipodi:nodetypes="cscscc"
                 clip-path="url(#clipPath31)"
                 transform="matrix(1.0302276,0.14747957,-0.1477418,1.0320594,-6.7444844,66.710558)" />
              <ellipse
                 style="fill:#dddddd;fill-opacity:1;stroke:none;stroke-width:3;stroke-dasharray:none;stroke-opacity:1"
                 id="ellipse57"
                 cx="-139.52704"
                 cy="92.098694"
                 rx="2.9200599"
                 ry="5.0809045" />
              <path
                 d="m -130.56084,99.303002 c 0.29344,-5.127781 -5.131,-12.519833 -8.30474,-12.978962 -4.607,-0.666473 -9.22033,7.130649 -9.61912,12.327471 -0.39261,5.116379 5.43718,12.693559 7.50759,13.439459 4.79891,1.72888 10.10217,-7.29916 10.41627,-12.787968 z"
                 style="fill:none;fill-opacity:1;stroke:#000000;stroke-width:3;stroke-dasharray:none;stroke-opacity:1"
                 id="path58"
                 sodipodi:nodetypes="asasa" />
            </g>
          </g>
        </g>
      </g>
    </g>
    <g
       id="g248"
       transform="translate(591.46591,554.59184)">
      <path
         d="m -571.34058,-324.96819 c -3.88602,-0.28387 -7.92196,-1.05701 -10.94071,-2.09589 -1.99982,-0.68821 -5.30037,-2.3162 -6.73881,-3.32391 -6.22595,-4.36159 -9.98191,-10.97571 -11.26584,-19.83887 -0.1573,-1.08583 -0.32977,-2.23574 -0.38326,-2.55534 -0.0533,-0.31961 -0.14342,-13.85232 -0.19986,-30.07267 -0.0932,-26.7574 -0.1253,-29.60603 -0.34653,-30.72641 -0.74032,-3.74973 -2.01772,-6.29931 -4.18906,-8.3614 -2.72357,-2.58645 -5.94665,-3.70526 -11.47236,-3.98229 -2.83678,-0.14224 -3.96054,-0.41708 -5.3495,-1.30839 -1.04519,-0.67067 -2.51871,-2.30186 -3.04193,-3.36734 -1.14385,-2.32921 -1.14385,-5.18161 0,-7.51082 0.52322,-1.06548 1.99674,-2.69667 3.04193,-3.36734 1.38896,-0.89131 2.51272,-1.16615 5.3495,-1.30837 5.88257,-0.29495 9.19008,-1.54508 12.02703,-4.54583 1.79534,-1.89904 2.96331,-4.40444 3.63505,-7.79788 0.22222,-1.1226 0.25291,-3.90289 0.33775,-30.58113 0.0828,-26.05164 0.12006,-29.54199 0.33158,-31.08962 1.05326,-7.70645 3.20727,-13.01577 7.0928,-17.48299 5.18984,-5.9667 14.09225,-9.30937 24.97296,-9.37686 2.3967,-0.0148 2.7977,0.018 3.70456,0.30416 2.74278,0.86532 5.01781,3.28837 5.66506,6.03361 0.85482,3.62541 -0.65302,7.18176 -3.92171,9.2497 -1.24556,0.78803 -2.32741,1.03436 -5.17162,1.17757 -3.63234,0.1829 -6.0732,0.72004 -8.3218,1.83134 -3.9013,1.92808 -6.26016,5.32626 -7.24138,10.43187 -0.30704,1.59765 -0.30985,1.81348 -0.40281,31.02776 -0.1,31.39054 -0.0686,30.04308 -0.78486,33.81865 -0.7523,3.96583 -2.06362,7.63384 -3.75898,10.51446 -0.8447,1.43533 -2.52057,3.67989 -3.28413,4.3987 -0.24933,0.23468 -0.45332,0.50029 -0.45332,0.59025 0,0.0899 0.20399,0.35557 0.45332,0.59025 0.76356,0.71881 2.43943,2.96337 3.28413,4.39871 1.69536,2.8806 3.00668,6.54862 3.75898,10.51445 0.71623,3.77556 0.68493,2.42811 0.78486,33.81865 0.093,29.21428 0.0958,29.4301 0.40281,31.02777 0.98122,5.10561 3.34008,8.5038 7.24138,10.43185 2.2486,1.11131 4.68946,1.64844 8.3218,1.83135 2.84421,0.14321 3.92606,0.38954 5.17162,1.17757 2.68506,1.69871 4.13619,4.24247 4.13619,7.25062 0,3.00816 -1.45113,5.55192 -4.13619,7.25064 -1.6371,1.03572 -4.05796,1.33391 -8.30865,1.02342 z"
         style="fill:#ffffff;fill-opacity:1;stroke-width:0.549084"
         id="path1-7"
         sodipodi:nodetypes="sssscsssssssssssssssssssssssssssssssssssss" />
      <path
         d="m -434.39457,-324.99698 c -3.14189,-0.52483 -5.98802,-3.29336 -6.66369,-6.48198 -0.88022,-4.15394 1.48128,-8.34143 5.4903,-9.73563 0.83478,-0.29032 1.46176,-0.3746 3.57414,-0.48051 5.88257,-0.29493 9.19012,-1.54508 12.02705,-4.54583 1.79536,-1.89903 2.96327,-4.40444 3.63504,-7.79788 0.22222,-1.1226 0.25293,-3.90288 0.33777,-30.58113 0.1018,-32.02684 0.0565,-30.3524 0.93942,-34.70869 1.16688,-5.75752 3.46524,-10.64375 6.61983,-14.07362 l 0.82549,-0.89753 -0.85609,-0.94702 c -3.19795,-3.53766 -5.42167,-8.27412 -6.58923,-14.03497 -0.8829,-4.35629 -0.83758,-2.68184 -0.93942,-34.7087 -0.0849,-26.67823 -0.11553,-29.45853 -0.33777,-30.58112 -0.67177,-3.39344 -1.83968,-5.89884 -3.63504,-7.79789 -2.83693,-3.00073 -6.14448,-4.25089 -12.02705,-4.54582 -2.9063,-0.14572 -3.95361,-0.41249 -5.40722,-1.37734 -4.35625,-2.89151 -5.14385,-8.84489 -1.67146,-12.63438 1.60741,-1.7542 3.40608,-2.62849 5.74185,-2.79098 1.62235,-0.11283 5.90083,0.15673 8.53201,0.53759 13.83176,2.00214 22.10751,9.76186 24.70113,23.16087 0.75096,3.8796 0.71339,2.31182 0.81287,33.92253 0.0919,29.20545 0.0948,29.43059 0.40142,31.02777 0.97988,5.10412 3.33964,8.50371 7.24107,10.43187 2.25624,1.11505 4.71514,1.65525 8.33332,1.83072 2.9404,0.1426 3.92867,0.38478 5.36892,1.31565 2.50425,1.61859 3.92735,4.19605 3.92735,7.11316 0,2.9171 -1.4231,5.49457 -3.92735,7.11316 -1.43726,0.92894 -2.42908,1.17263 -5.36619,1.31841 -1.39831,0.0693 -3.09323,0.23204 -3.7665,0.36141 -5.69198,1.09363 -9.23712,3.95341 -10.99382,8.86843 -0.27936,0.78163 -0.64693,2.14512 -0.81681,3.03 -0.30667,1.59731 -0.30954,1.82023 -0.40143,31.10038 -0.10045,32.03166 -0.0473,29.9686 -0.88492,34.30914 -2.25513,11.68578 -9.14629,19.1093 -20.41598,21.99315 -4.29986,1.10031 -11.12048,1.73589 -13.80901,1.28678 z"
         style="fill:#ffffff;fill-opacity:1;stroke-width:0.549084"
         id="path1-4" />
    </g>
  </g>
</svg>
