<?xml version="1.0" encoding="UTF-8" standalone="no"?>
<!-- Created with Inkscape (http://www.inkscape.org/) -->

<svg
   width="70.037819mm"
   height="88.292511mm"
   viewBox="0 0 70.037819 88.292511"
   version="1.1"
   id="svg1"
   xml:space="preserve"
   xmlns:inkscape="http://www.inkscape.org/namespaces/inkscape"
   xmlns:sodipodi="http://sodipodi.sourceforge.net/DTD/sodipodi-0.dtd"
   xmlns="http://www.w3.org/2000/svg"
   xmlns:svg="http://www.w3.org/2000/svg"><sodipodi:namedview
     id="namedview1"
     pagecolor="#ffffff"
     bordercolor="#000000"
     borderopacity="0.25"
     inkscape:showpageshadow="2"
     inkscape:pageopacity="0.0"
     inkscape:pagecheckerboard="0"
     inkscape:deskcolor="#d1d1d1"
     inkscape:document-units="mm"
     inkscape:zoom="0.40043841"
     inkscape:cx="680.50415"
     inkscape:cy="425.78333"
     inkscape:window-width="1920"
     inkscape:window-height="1137"
     inkscape:window-x="-8"
     inkscape:window-y="-8"
     inkscape:window-maximized="1"
     inkscape:current-layer="layer1" /><defs
     id="defs1"><inkscape:path-effect
       effect="powerclip"
       id="path-effect5"
       is_visible="true"
       lpeversion="1"
       inverse="true"
       flatten="false"
       hide_clip="false"
       message="Utilice la regla de relleno parimpar en el diálogo &lt;b&gt;Relleno y borde&lt;/b&gt; si el resultado no está aplanada después de convertir el recorte en trayectos." /><clipPath
       clipPathUnits="userSpaceOnUse"
       id="clipPath5"><rect
         style="display:none;fill:#af9764;stroke-width:96.7063;stroke-linecap:round;stroke-linejoin:round"
         id="rect5"
         width="43.020695"
         height="23.469814"
         x="70.720757"
         y="48.617199"
         rx="12.665913"
         ry="10.053046"
         d="m 83.386669,48.617199 h 17.688871 c 7.01691,0 12.66591,4.483659 12.66591,10.053046 v 3.363722 c 0,5.569388 -5.649,10.053046 -12.66591,10.053046 H 83.386669 c -7.016915,0 -12.665912,-4.483658 -12.665912,-10.053046 v -3.363722 c 0,-5.569387 5.648997,-10.053046 12.665912,-10.053046 z" /><path
         id="lpe_path-effect5"
         style="fill:#af9764;stroke-width:96.7063;stroke-linecap:round;stroke-linejoin:round"
         class="powerclip"
         d="M 52.212193,51.825043 H 132.25001 V 143.75607 H 52.212193 Z m 31.174476,-3.207844 c -7.016915,0 -12.665912,4.483659 -12.665912,10.053046 v 3.363722 c 0,5.569388 5.648997,10.053046 12.665912,10.053046 h 17.688871 c 7.01691,0 12.66591,-4.483658 12.66591,-10.053046 v -3.363722 c 0,-5.569387 -5.649,-10.053046 -12.66591,-10.053046 z" /></clipPath></defs><g
     inkscape:label="Capa 1"
     inkscape:groupmode="layer"
     id="layer1"
     transform="translate(140.74381,12.434475)"><g
       id="g8"><g
         id="g5"
         transform="translate(-197.956,-62.898041)"
         style="fill:#3eb0f9;fill-opacity:1"><path
           style="fill:#3eb0f9;fill-opacity:1;stroke-width:100.483;stroke-linecap:round;stroke-linejoin:round"
           id="rect1"
           width="70.037819"
           height="81.93103"
           x="57.212193"
           y="56.825043"
           rx="9.9783335"
           ry="8.4862967"
           clip-path="url(#clipPath5)"
           inkscape:path-effect="#path-effect5"
           sodipodi:type="rect"
           d="m 67.190526,56.825043 h 50.081154 c 5.52799,0 9.97833,3.784888 9.97833,8.486296 v 64.958441 c 0,4.7014 -4.45034,8.48629 -9.97833,8.48629 H 67.190526 c -5.527997,0 -9.978333,-3.78489 -9.978333,-8.48629 V 65.311339 c 0,-4.701408 4.450336,-8.486296 9.978333,-8.486296 z" /><rect
           style="fill:#3eb0f9;fill-opacity:1;stroke-width:66.4734;stroke-linecap:round;stroke-linejoin:round"
           id="rect3"
           width="30.724134"
           height="15.527251"
           x="76.869034"
           y="50.463566"
           rx="4.2024245"
           ry="4.7190676" /></g><circle
         style="fill:none;stroke:#ffa61e;stroke-width:21.7629;stroke-linecap:round;stroke-linejoin:round;stroke-dasharray:none;stroke-opacity:1"
         id="path5"
         cx="-116.25417"
         cy="28.715729"
         r="2.4988892" /><g
         id="g7"
         transform="translate(-197.86984,-62.769744)"
         style="stroke:#ff5500;stroke-opacity:1"><path
           style="fill:none;stroke:#ff5500;stroke-width:7;stroke-linecap:round;stroke-linejoin:round;stroke-dasharray:none;stroke-opacity:1"
           d="M 94.726746,124.97857 111.66309,108.15902"
           id="path6" /><path
           style="fill:none;stroke:#ff5500;stroke-width:7;stroke-linecap:round;stroke-linejoin:round;stroke-dasharray:none;stroke-opacity:1"
           d="M 111.66309,124.97857 94.726746,108.15902"
           id="path7" /></g></g></g></svg>
